<?xml version="1.0" standalone="no"?>
<!DOCTYPE svg PUBLIC "-//W3C//DTD SVG 1.1//EN" "http://www.w3.org/Graphics/SVG/1.1/DTD/svg11.dtd" >
<svg xmlns="http://www.w3.org/2000/svg" xmlns:xlink="http://www.w3.org/1999/xlink" version="1.1">
<metadata>
Created by FontForge 20170731 at Fri Aug 18 14:47:29 2023
 By Aleksey,,,
Alternate r
</metadata>
<defs>
<font id="FONTSPRINGDEMO-RocGroteskCompressedLightRegular" horiz-adv-x="1224" >
  <font-face 
    font-family="FSP DEMO - RcGrtskCmprssdLght"
    font-weight="350"
    font-stretch="extra-condensed"
    units-per-em="2048"
    panose-1="0 0 4 8 0 0 0 0 0 0"
    ascent="1556"
    descent="-492"
    x-height="1012"
    cap-height="1348"
    bbox="-33 -408 1098 1401"
    underline-thickness="102"
    underline-position="-266"
    unicode-range="U+000D-007E"
  />
<missing-glyph 
d="M207 403q-13 0 -19 -2v-200q4 -2 19 -2q37 0 50 25t13 77q0 54 -13 78t-50 24zM518 330v-49h-82v-78h96v-49h-155v297h155v-52h-96v-69h82zM203 150q-47 0 -74 4v292q61 9 76 9q67 0 96 -37.5t29 -116.5t-29.5 -115t-97.5 -36zM586 451h80l39 -164l38 164h82
q3 -45 13 -297h-60q0 108 -6 213l-41 -168h-55l-41 168h-2q-4 -140 -4 -213h-58q3 156 15 297zM987 150q-60 0 -84 35.5t-24 115.5q0 81 24 117.5t84 36.5t85.5 -37t25.5 -117q0 -79 -25.5 -115t-85.5 -36zM987 403q-29 0 -39 -23.5t-10 -78.5q0 -54 10 -78t39 -24
q30 0 40.5 24t10.5 78q0 55 -10 78.5t-41 23.5zM967 1016q49 0 79.5 -24.5t39 -51t8.5 -53.5q0 -43 -34.5 -72.5t-72.5 -34.5q-213 -23 -340 -147q3 8 9 22t25 53.5t39 75.5t50 80.5t59.5 76t66 53.5t71.5 22zM285 909q39 0 78 -21t69.5 -55t58.5 -74.5t48 -81.5t35 -75
t22 -55l8 -21q-117 148 -319 148q-49 0 -88 30t-39 76q0 53 33.5 91t93.5 38zM643 1214q38 -37 48.5 -102t-2.5 -131t-31.5 -126.5t-35.5 -98.5l-18 -39q20 191 -125 330q-35 35 -42 81.5t24 83.5q23 23 53 34t65 3.5t64 -35.5z" />
    <glyph glyph-name=".notdef" 
d="M207 403q-13 0 -19 -2v-200q4 -2 19 -2q37 0 50 25t13 77q0 54 -13 78t-50 24zM518 330v-49h-82v-78h96v-49h-155v297h155v-52h-96v-69h82zM203 150q-47 0 -74 4v292q61 9 76 9q67 0 96 -37.5t29 -116.5t-29.5 -115t-97.5 -36zM586 451h80l39 -164l38 164h82
q3 -45 13 -297h-60q0 108 -6 213l-41 -168h-55l-41 168h-2q-4 -140 -4 -213h-58q3 156 15 297zM987 150q-60 0 -84 35.5t-24 115.5q0 81 24 117.5t84 36.5t85.5 -37t25.5 -117q0 -79 -25.5 -115t-85.5 -36zM987 403q-29 0 -39 -23.5t-10 -78.5q0 -54 10 -78t39 -24
q30 0 40.5 24t10.5 78q0 55 -10 78.5t-41 23.5zM967 1016q49 0 79.5 -24.5t39 -51t8.5 -53.5q0 -43 -34.5 -72.5t-72.5 -34.5q-213 -23 -340 -147q3 8 9 22t25 53.5t39 75.5t50 80.5t59.5 76t66 53.5t71.5 22zM285 909q39 0 78 -21t69.5 -55t58.5 -74.5t48 -81.5t35 -75
t22 -55l8 -21q-117 148 -319 148q-49 0 -88 30t-39 76q0 53 33.5 91t93.5 38zM643 1214q38 -37 48.5 -102t-2.5 -131t-31.5 -126.5t-35.5 -98.5l-18 -39q20 191 -125 330q-35 35 -42 81.5t24 83.5q23 23 53 34t65 3.5t64 -35.5z" />
    <glyph glyph-name=".null" horiz-adv-x="0" 
 />
    <glyph glyph-name="nonmarkingreturn" horiz-adv-x="682" 
 />
    <glyph glyph-name="NULL" horiz-adv-x="0" 
 />
    <glyph glyph-name="NULL" horiz-adv-x="0" 
 />
    <glyph glyph-name="CR" unicode="&#xd;" horiz-adv-x="294" 
 />
    <glyph glyph-name="space" unicode=" " horiz-adv-x="204" 
 />
    <glyph glyph-name="exclam" unicode="!" 
d="M207 403q-13 0 -19 -2v-200q4 -2 19 -2q37 0 50 25t13 77q0 54 -13 78t-50 24zM518 330v-49h-82v-78h96v-49h-155v297h155v-52h-96v-69h82zM203 150q-47 0 -74 4v292q61 9 76 9q67 0 96 -37.5t29 -116.5t-29.5 -115t-97.5 -36zM586 451h80l39 -164l38 164h82
q3 -45 13 -297h-60q0 108 -6 213l-41 -168h-55l-41 168h-2q-4 -140 -4 -213h-58q3 156 15 297zM987 150q-60 0 -84 35.5t-24 115.5q0 81 24 117.5t84 36.5t85.5 -37t25.5 -117q0 -79 -25.5 -115t-85.5 -36zM987 403q-29 0 -39 -23.5t-10 -78.5q0 -54 10 -78t39 -24
q30 0 40.5 24t10.5 78q0 55 -10 78.5t-41 23.5zM967 1016q49 0 79.5 -24.5t39 -51t8.5 -53.5q0 -43 -34.5 -72.5t-72.5 -34.5q-213 -23 -340 -147q3 8 9 22t25 53.5t39 75.5t50 80.5t59.5 76t66 53.5t71.5 22zM285 909q39 0 78 -21t69.5 -55t58.5 -74.5t48 -81.5t35 -75
t22 -55l8 -21q-117 148 -319 148q-49 0 -88 30t-39 76q0 53 33.5 91t93.5 38zM643 1214q38 -37 48.5 -102t-2.5 -131t-31.5 -126.5t-35.5 -98.5l-18 -39q20 191 -125 330q-35 35 -42 81.5t24 83.5q23 23 53 34t65 3.5t64 -35.5z" />
    <glyph glyph-name="quotedbl" unicode="&#x22;" 
d="M207 403q-13 0 -19 -2v-200q4 -2 19 -2q37 0 50 25t13 77q0 54 -13 78t-50 24zM518 330v-49h-82v-78h96v-49h-155v297h155v-52h-96v-69h82zM203 150q-47 0 -74 4v292q61 9 76 9q67 0 96 -37.5t29 -116.5t-29.5 -115t-97.5 -36zM586 451h80l39 -164l38 164h82
q3 -45 13 -297h-60q0 108 -6 213l-41 -168h-55l-41 168h-2q-4 -140 -4 -213h-58q3 156 15 297zM987 150q-60 0 -84 35.5t-24 115.5q0 81 24 117.5t84 36.5t85.5 -37t25.5 -117q0 -79 -25.5 -115t-85.5 -36zM987 403q-29 0 -39 -23.5t-10 -78.5q0 -54 10 -78t39 -24
q30 0 40.5 24t10.5 78q0 55 -10 78.5t-41 23.5zM967 1016q49 0 79.5 -24.5t39 -51t8.5 -53.5q0 -43 -34.5 -72.5t-72.5 -34.5q-213 -23 -340 -147q3 8 9 22t25 53.5t39 75.5t50 80.5t59.5 76t66 53.5t71.5 22zM285 909q39 0 78 -21t69.5 -55t58.5 -74.5t48 -81.5t35 -75
t22 -55l8 -21q-117 148 -319 148q-49 0 -88 30t-39 76q0 53 33.5 91t93.5 38zM643 1214q38 -37 48.5 -102t-2.5 -131t-31.5 -126.5t-35.5 -98.5l-18 -39q20 191 -125 330q-35 35 -42 81.5t24 83.5q23 23 53 34t65 3.5t64 -35.5z" />
    <glyph glyph-name="numbersign" unicode="#" 
d="M207 403q-13 0 -19 -2v-200q4 -2 19 -2q37 0 50 25t13 77q0 54 -13 78t-50 24zM518 330v-49h-82v-78h96v-49h-155v297h155v-52h-96v-69h82zM203 150q-47 0 -74 4v292q61 9 76 9q67 0 96 -37.5t29 -116.5t-29.5 -115t-97.5 -36zM586 451h80l39 -164l38 164h82
q3 -45 13 -297h-60q0 108 -6 213l-41 -168h-55l-41 168h-2q-4 -140 -4 -213h-58q3 156 15 297zM987 150q-60 0 -84 35.5t-24 115.5q0 81 24 117.5t84 36.5t85.5 -37t25.5 -117q0 -79 -25.5 -115t-85.5 -36zM987 403q-29 0 -39 -23.5t-10 -78.5q0 -54 10 -78t39 -24
q30 0 40.5 24t10.5 78q0 55 -10 78.5t-41 23.5zM967 1016q49 0 79.5 -24.5t39 -51t8.5 -53.5q0 -43 -34.5 -72.5t-72.5 -34.5q-213 -23 -340 -147q3 8 9 22t25 53.5t39 75.5t50 80.5t59.5 76t66 53.5t71.5 22zM285 909q39 0 78 -21t69.5 -55t58.5 -74.5t48 -81.5t35 -75
t22 -55l8 -21q-117 148 -319 148q-49 0 -88 30t-39 76q0 53 33.5 91t93.5 38zM643 1214q38 -37 48.5 -102t-2.5 -131t-31.5 -126.5t-35.5 -98.5l-18 -39q20 191 -125 330q-35 35 -42 81.5t24 83.5q23 23 53 34t65 3.5t64 -35.5z" />
    <glyph glyph-name="dollar" unicode="$" 
d="M207 403q-13 0 -19 -2v-200q4 -2 19 -2q37 0 50 25t13 77q0 54 -13 78t-50 24zM518 330v-49h-82v-78h96v-49h-155v297h155v-52h-96v-69h82zM203 150q-47 0 -74 4v292q61 9 76 9q67 0 96 -37.5t29 -116.5t-29.5 -115t-97.5 -36zM586 451h80l39 -164l38 164h82
q3 -45 13 -297h-60q0 108 -6 213l-41 -168h-55l-41 168h-2q-4 -140 -4 -213h-58q3 156 15 297zM987 150q-60 0 -84 35.5t-24 115.5q0 81 24 117.5t84 36.5t85.5 -37t25.5 -117q0 -79 -25.5 -115t-85.5 -36zM987 403q-29 0 -39 -23.5t-10 -78.5q0 -54 10 -78t39 -24
q30 0 40.5 24t10.5 78q0 55 -10 78.5t-41 23.5zM967 1016q49 0 79.5 -24.5t39 -51t8.5 -53.5q0 -43 -34.5 -72.5t-72.5 -34.5q-213 -23 -340 -147q3 8 9 22t25 53.5t39 75.5t50 80.5t59.5 76t66 53.5t71.5 22zM285 909q39 0 78 -21t69.5 -55t58.5 -74.5t48 -81.5t35 -75
t22 -55l8 -21q-117 148 -319 148q-49 0 -88 30t-39 76q0 53 33.5 91t93.5 38zM643 1214q38 -37 48.5 -102t-2.5 -131t-31.5 -126.5t-35.5 -98.5l-18 -39q20 191 -125 330q-35 35 -42 81.5t24 83.5q23 23 53 34t65 3.5t64 -35.5z" />
    <glyph glyph-name="percent" unicode="%" 
d="M207 403q-13 0 -19 -2v-200q4 -2 19 -2q37 0 50 25t13 77q0 54 -13 78t-50 24zM518 330v-49h-82v-78h96v-49h-155v297h155v-52h-96v-69h82zM203 150q-47 0 -74 4v292q61 9 76 9q67 0 96 -37.5t29 -116.5t-29.5 -115t-97.5 -36zM586 451h80l39 -164l38 164h82
q3 -45 13 -297h-60q0 108 -6 213l-41 -168h-55l-41 168h-2q-4 -140 -4 -213h-58q3 156 15 297zM987 150q-60 0 -84 35.5t-24 115.5q0 81 24 117.5t84 36.5t85.5 -37t25.5 -117q0 -79 -25.5 -115t-85.5 -36zM987 403q-29 0 -39 -23.5t-10 -78.5q0 -54 10 -78t39 -24
q30 0 40.5 24t10.5 78q0 55 -10 78.5t-41 23.5zM967 1016q49 0 79.5 -24.5t39 -51t8.5 -53.5q0 -43 -34.5 -72.5t-72.5 -34.5q-213 -23 -340 -147q3 8 9 22t25 53.5t39 75.5t50 80.5t59.5 76t66 53.5t71.5 22zM285 909q39 0 78 -21t69.5 -55t58.5 -74.5t48 -81.5t35 -75
t22 -55l8 -21q-117 148 -319 148q-49 0 -88 30t-39 76q0 53 33.5 91t93.5 38zM643 1214q38 -37 48.5 -102t-2.5 -131t-31.5 -126.5t-35.5 -98.5l-18 -39q20 191 -125 330q-35 35 -42 81.5t24 83.5q23 23 53 34t65 3.5t64 -35.5z" />
    <glyph glyph-name="ampersand" unicode="&#x26;" 
d="M207 403q-13 0 -19 -2v-200q4 -2 19 -2q37 0 50 25t13 77q0 54 -13 78t-50 24zM518 330v-49h-82v-78h96v-49h-155v297h155v-52h-96v-69h82zM203 150q-47 0 -74 4v292q61 9 76 9q67 0 96 -37.5t29 -116.5t-29.5 -115t-97.5 -36zM586 451h80l39 -164l38 164h82
q3 -45 13 -297h-60q0 108 -6 213l-41 -168h-55l-41 168h-2q-4 -140 -4 -213h-58q3 156 15 297zM987 150q-60 0 -84 35.5t-24 115.5q0 81 24 117.5t84 36.5t85.5 -37t25.5 -117q0 -79 -25.5 -115t-85.5 -36zM987 403q-29 0 -39 -23.5t-10 -78.5q0 -54 10 -78t39 -24
q30 0 40.5 24t10.5 78q0 55 -10 78.5t-41 23.5zM967 1016q49 0 79.5 -24.5t39 -51t8.5 -53.5q0 -43 -34.5 -72.5t-72.5 -34.5q-213 -23 -340 -147q3 8 9 22t25 53.5t39 75.5t50 80.5t59.5 76t66 53.5t71.5 22zM285 909q39 0 78 -21t69.5 -55t58.5 -74.5t48 -81.5t35 -75
t22 -55l8 -21q-117 148 -319 148q-49 0 -88 30t-39 76q0 53 33.5 91t93.5 38zM643 1214q38 -37 48.5 -102t-2.5 -131t-31.5 -126.5t-35.5 -98.5l-18 -39q20 191 -125 330q-35 35 -42 81.5t24 83.5q23 23 53 34t65 3.5t64 -35.5z" />
    <glyph glyph-name="quotesingle" unicode="'" 
d="M207 403q-13 0 -19 -2v-200q4 -2 19 -2q37 0 50 25t13 77q0 54 -13 78t-50 24zM518 330v-49h-82v-78h96v-49h-155v297h155v-52h-96v-69h82zM203 150q-47 0 -74 4v292q61 9 76 9q67 0 96 -37.5t29 -116.5t-29.5 -115t-97.5 -36zM586 451h80l39 -164l38 164h82
q3 -45 13 -297h-60q0 108 -6 213l-41 -168h-55l-41 168h-2q-4 -140 -4 -213h-58q3 156 15 297zM987 150q-60 0 -84 35.5t-24 115.5q0 81 24 117.5t84 36.5t85.5 -37t25.5 -117q0 -79 -25.5 -115t-85.5 -36zM987 403q-29 0 -39 -23.5t-10 -78.5q0 -54 10 -78t39 -24
q30 0 40.5 24t10.5 78q0 55 -10 78.5t-41 23.5zM967 1016q49 0 79.5 -24.5t39 -51t8.5 -53.5q0 -43 -34.5 -72.5t-72.5 -34.5q-213 -23 -340 -147q3 8 9 22t25 53.5t39 75.5t50 80.5t59.5 76t66 53.5t71.5 22zM285 909q39 0 78 -21t69.5 -55t58.5 -74.5t48 -81.5t35 -75
t22 -55l8 -21q-117 148 -319 148q-49 0 -88 30t-39 76q0 53 33.5 91t93.5 38zM643 1214q38 -37 48.5 -102t-2.5 -131t-31.5 -126.5t-35.5 -98.5l-18 -39q20 191 -125 330q-35 35 -42 81.5t24 83.5q23 23 53 34t65 3.5t64 -35.5z" />
    <glyph glyph-name="parenleft" unicode="(" 
d="M207 403q-13 0 -19 -2v-200q4 -2 19 -2q37 0 50 25t13 77q0 54 -13 78t-50 24zM518 330v-49h-82v-78h96v-49h-155v297h155v-52h-96v-69h82zM203 150q-47 0 -74 4v292q61 9 76 9q67 0 96 -37.5t29 -116.5t-29.5 -115t-97.5 -36zM586 451h80l39 -164l38 164h82
q3 -45 13 -297h-60q0 108 -6 213l-41 -168h-55l-41 168h-2q-4 -140 -4 -213h-58q3 156 15 297zM987 150q-60 0 -84 35.5t-24 115.5q0 81 24 117.5t84 36.5t85.5 -37t25.5 -117q0 -79 -25.5 -115t-85.5 -36zM987 403q-29 0 -39 -23.5t-10 -78.5q0 -54 10 -78t39 -24
q30 0 40.5 24t10.5 78q0 55 -10 78.5t-41 23.5zM967 1016q49 0 79.5 -24.5t39 -51t8.5 -53.5q0 -43 -34.5 -72.5t-72.5 -34.5q-213 -23 -340 -147q3 8 9 22t25 53.5t39 75.5t50 80.5t59.5 76t66 53.5t71.5 22zM285 909q39 0 78 -21t69.5 -55t58.5 -74.5t48 -81.5t35 -75
t22 -55l8 -21q-117 148 -319 148q-49 0 -88 30t-39 76q0 53 33.5 91t93.5 38zM643 1214q38 -37 48.5 -102t-2.5 -131t-31.5 -126.5t-35.5 -98.5l-18 -39q20 191 -125 330q-35 35 -42 81.5t24 83.5q23 23 53 34t65 3.5t64 -35.5z" />
    <glyph glyph-name="parenright" unicode=")" 
d="M207 403q-13 0 -19 -2v-200q4 -2 19 -2q37 0 50 25t13 77q0 54 -13 78t-50 24zM518 330v-49h-82v-78h96v-49h-155v297h155v-52h-96v-69h82zM203 150q-47 0 -74 4v292q61 9 76 9q67 0 96 -37.5t29 -116.5t-29.5 -115t-97.5 -36zM586 451h80l39 -164l38 164h82
q3 -45 13 -297h-60q0 108 -6 213l-41 -168h-55l-41 168h-2q-4 -140 -4 -213h-58q3 156 15 297zM987 150q-60 0 -84 35.5t-24 115.5q0 81 24 117.5t84 36.5t85.5 -37t25.5 -117q0 -79 -25.5 -115t-85.5 -36zM987 403q-29 0 -39 -23.5t-10 -78.5q0 -54 10 -78t39 -24
q30 0 40.5 24t10.5 78q0 55 -10 78.5t-41 23.5zM967 1016q49 0 79.5 -24.5t39 -51t8.5 -53.5q0 -43 -34.5 -72.5t-72.5 -34.5q-213 -23 -340 -147q3 8 9 22t25 53.5t39 75.5t50 80.5t59.5 76t66 53.5t71.5 22zM285 909q39 0 78 -21t69.5 -55t58.5 -74.5t48 -81.5t35 -75
t22 -55l8 -21q-117 148 -319 148q-49 0 -88 30t-39 76q0 53 33.5 91t93.5 38zM643 1214q38 -37 48.5 -102t-2.5 -131t-31.5 -126.5t-35.5 -98.5l-18 -39q20 191 -125 330q-35 35 -42 81.5t24 83.5q23 23 53 34t65 3.5t64 -35.5z" />
    <glyph glyph-name="asterisk" unicode="*" 
d="M207 403q-13 0 -19 -2v-200q4 -2 19 -2q37 0 50 25t13 77q0 54 -13 78t-50 24zM518 330v-49h-82v-78h96v-49h-155v297h155v-52h-96v-69h82zM203 150q-47 0 -74 4v292q61 9 76 9q67 0 96 -37.5t29 -116.5t-29.5 -115t-97.5 -36zM586 451h80l39 -164l38 164h82
q3 -45 13 -297h-60q0 108 -6 213l-41 -168h-55l-41 168h-2q-4 -140 -4 -213h-58q3 156 15 297zM987 150q-60 0 -84 35.5t-24 115.5q0 81 24 117.5t84 36.5t85.5 -37t25.5 -117q0 -79 -25.5 -115t-85.5 -36zM987 403q-29 0 -39 -23.5t-10 -78.5q0 -54 10 -78t39 -24
q30 0 40.5 24t10.5 78q0 55 -10 78.5t-41 23.5zM967 1016q49 0 79.5 -24.5t39 -51t8.5 -53.5q0 -43 -34.5 -72.5t-72.5 -34.5q-213 -23 -340 -147q3 8 9 22t25 53.5t39 75.5t50 80.5t59.5 76t66 53.5t71.5 22zM285 909q39 0 78 -21t69.5 -55t58.5 -74.5t48 -81.5t35 -75
t22 -55l8 -21q-117 148 -319 148q-49 0 -88 30t-39 76q0 53 33.5 91t93.5 38zM643 1214q38 -37 48.5 -102t-2.5 -131t-31.5 -126.5t-35.5 -98.5l-18 -39q20 191 -125 330q-35 35 -42 81.5t24 83.5q23 23 53 34t65 3.5t64 -35.5z" />
    <glyph glyph-name="plus" unicode="+" 
d="M207 403q-13 0 -19 -2v-200q4 -2 19 -2q37 0 50 25t13 77q0 54 -13 78t-50 24zM518 330v-49h-82v-78h96v-49h-155v297h155v-52h-96v-69h82zM203 150q-47 0 -74 4v292q61 9 76 9q67 0 96 -37.5t29 -116.5t-29.5 -115t-97.5 -36zM586 451h80l39 -164l38 164h82
q3 -45 13 -297h-60q0 108 -6 213l-41 -168h-55l-41 168h-2q-4 -140 -4 -213h-58q3 156 15 297zM987 150q-60 0 -84 35.5t-24 115.5q0 81 24 117.5t84 36.5t85.5 -37t25.5 -117q0 -79 -25.5 -115t-85.5 -36zM987 403q-29 0 -39 -23.5t-10 -78.5q0 -54 10 -78t39 -24
q30 0 40.5 24t10.5 78q0 55 -10 78.5t-41 23.5zM967 1016q49 0 79.5 -24.5t39 -51t8.5 -53.5q0 -43 -34.5 -72.5t-72.5 -34.5q-213 -23 -340 -147q3 8 9 22t25 53.5t39 75.5t50 80.5t59.5 76t66 53.5t71.5 22zM285 909q39 0 78 -21t69.5 -55t58.5 -74.5t48 -81.5t35 -75
t22 -55l8 -21q-117 148 -319 148q-49 0 -88 30t-39 76q0 53 33.5 91t93.5 38zM643 1214q38 -37 48.5 -102t-2.5 -131t-31.5 -126.5t-35.5 -98.5l-18 -39q20 191 -125 330q-35 35 -42 81.5t24 83.5q23 23 53 34t65 3.5t64 -35.5z" />
    <glyph glyph-name="comma" unicode="," horiz-adv-x="321" 
d="M53 -199v64q32 10 48 39.5t16 91.5v4h-33v180h94v-123q0 -122 -28.5 -180.5t-96.5 -75.5z" />
    <glyph glyph-name="hyphen" unicode="-" 
d="M207 403q-13 0 -19 -2v-200q4 -2 19 -2q37 0 50 25t13 77q0 54 -13 78t-50 24zM518 330v-49h-82v-78h96v-49h-155v297h155v-52h-96v-69h82zM203 150q-47 0 -74 4v292q61 9 76 9q67 0 96 -37.5t29 -116.5t-29.5 -115t-97.5 -36zM586 451h80l39 -164l38 164h82
q3 -45 13 -297h-60q0 108 -6 213l-41 -168h-55l-41 168h-2q-4 -140 -4 -213h-58q3 156 15 297zM987 150q-60 0 -84 35.5t-24 115.5q0 81 24 117.5t84 36.5t85.5 -37t25.5 -117q0 -79 -25.5 -115t-85.5 -36zM987 403q-29 0 -39 -23.5t-10 -78.5q0 -54 10 -78t39 -24
q30 0 40.5 24t10.5 78q0 55 -10 78.5t-41 23.5zM967 1016q49 0 79.5 -24.5t39 -51t8.5 -53.5q0 -43 -34.5 -72.5t-72.5 -34.5q-213 -23 -340 -147q3 8 9 22t25 53.5t39 75.5t50 80.5t59.5 76t66 53.5t71.5 22zM285 909q39 0 78 -21t69.5 -55t58.5 -74.5t48 -81.5t35 -75
t22 -55l8 -21q-117 148 -319 148q-49 0 -88 30t-39 76q0 53 33.5 91t93.5 38zM643 1214q38 -37 48.5 -102t-2.5 -131t-31.5 -126.5t-35.5 -98.5l-18 -39q20 191 -125 330q-35 35 -42 81.5t24 83.5q23 23 53 34t65 3.5t64 -35.5z" />
    <glyph glyph-name="period" unicode="." horiz-adv-x="321" 
d="M113 0v180h94v-180h-94z" />
    <glyph glyph-name="slash" unicode="/" 
d="M207 403q-13 0 -19 -2v-200q4 -2 19 -2q37 0 50 25t13 77q0 54 -13 78t-50 24zM518 330v-49h-82v-78h96v-49h-155v297h155v-52h-96v-69h82zM203 150q-47 0 -74 4v292q61 9 76 9q67 0 96 -37.5t29 -116.5t-29.5 -115t-97.5 -36zM586 451h80l39 -164l38 164h82
q3 -45 13 -297h-60q0 108 -6 213l-41 -168h-55l-41 168h-2q-4 -140 -4 -213h-58q3 156 15 297zM987 150q-60 0 -84 35.5t-24 115.5q0 81 24 117.5t84 36.5t85.5 -37t25.5 -117q0 -79 -25.5 -115t-85.5 -36zM987 403q-29 0 -39 -23.5t-10 -78.5q0 -54 10 -78t39 -24
q30 0 40.5 24t10.5 78q0 55 -10 78.5t-41 23.5zM967 1016q49 0 79.5 -24.5t39 -51t8.5 -53.5q0 -43 -34.5 -72.5t-72.5 -34.5q-213 -23 -340 -147q3 8 9 22t25 53.5t39 75.5t50 80.5t59.5 76t66 53.5t71.5 22zM285 909q39 0 78 -21t69.5 -55t58.5 -74.5t48 -81.5t35 -75
t22 -55l8 -21q-117 148 -319 148q-49 0 -88 30t-39 76q0 53 33.5 91t93.5 38zM643 1214q38 -37 48.5 -102t-2.5 -131t-31.5 -126.5t-35.5 -98.5l-18 -39q20 191 -125 330q-35 35 -42 81.5t24 83.5q23 23 53 34t65 3.5t64 -35.5z" />
    <glyph glyph-name="zero" unicode="0" horiz-adv-x="466" 
d="M233 -14q-50 0 -78.5 23t-49 98.5t-28 209.5t-7.5 363q0 296 17 443.5t49.5 193t96.5 45.5q48 0 76 -22.5t50 -94.5t30 -206.5t8 -358.5q0 -302 -16 -449.5t-48.5 -196t-99.5 -48.5zM233 76q24 0 37 18t23 82t13 181t3 323q0 199 -4 317t-14 179t-22.5 78.5t-35.5 17.5
t-35.5 -17.5t-22.5 -79t-13.5 -178.5t-3.5 -317q0 -207 3 -323.5t12.5 -181t22.5 -82t37 -17.5z" />
    <glyph glyph-name="one" unicode="1" horiz-adv-x="466" 
d="M23 0v90h180v821h-156v76h88q57 1 68.5 55.5t11.5 323.5h78v-1276h153v-90h-423z" />
    <glyph glyph-name="two" unicode="2" horiz-adv-x="466" 
d="M76 0q0 195 16.5 276t83.5 211q81 150 105 235t24 239q0 97 -2.5 154.5t-10.5 95.5t-21 51.5t-35 13.5q-31 0 -46.5 -27t-22.5 -105t-7 -237q0 -118 4 -188h-82q-6 105 -6 188q0 190 15.5 287t49 132.5t99.5 35.5q89 0 122 -83.5t33 -309.5q0 -163 -28.5 -263.5
t-108.5 -248.5q-63 -111 -77.5 -171t-14.5 -196h229v-90h-319z" />
    <glyph glyph-name="three" unicode="3" horiz-adv-x="466" 
d="M231 -14q-61 0 -93.5 26t-49 100t-16.5 216q0 76 2 133h84q-2 -55 -2 -121q0 -115 8 -172.5t22 -74.5t43 -17q46 0 61 68t15 257q0 138 -18.5 188t-71.5 50h-57v72h53q49 0 64.5 58t15.5 220q0 167 -13.5 225t-48.5 58q-25 0 -38 -19.5t-20 -80t-7 -179.5q0 -57 4 -135
h-86q-2 47 -2 150q0 144 17 222t48 105t86 27q54 0 85.5 -30t48 -108.5t16.5 -217.5q0 -158 -18.5 -229t-71.5 -89v-4q60 -18 82 -85t22 -208q0 -226 -34.5 -315.5t-129.5 -89.5z" />
    <glyph glyph-name="four" unicode="4" 
d="M207 403q-13 0 -19 -2v-200q4 -2 19 -2q37 0 50 25t13 77q0 54 -13 78t-50 24zM518 330v-49h-82v-78h96v-49h-155v297h155v-52h-96v-69h82zM203 150q-47 0 -74 4v292q61 9 76 9q67 0 96 -37.5t29 -116.5t-29.5 -115t-97.5 -36zM586 451h80l39 -164l38 164h82
q3 -45 13 -297h-60q0 108 -6 213l-41 -168h-55l-41 168h-2q-4 -140 -4 -213h-58q3 156 15 297zM987 150q-60 0 -84 35.5t-24 115.5q0 81 24 117.5t84 36.5t85.5 -37t25.5 -117q0 -79 -25.5 -115t-85.5 -36zM987 403q-29 0 -39 -23.5t-10 -78.5q0 -54 10 -78t39 -24
q30 0 40.5 24t10.5 78q0 55 -10 78.5t-41 23.5zM967 1016q49 0 79.5 -24.5t39 -51t8.5 -53.5q0 -43 -34.5 -72.5t-72.5 -34.5q-213 -23 -340 -147q3 8 9 22t25 53.5t39 75.5t50 80.5t59.5 76t66 53.5t71.5 22zM285 909q39 0 78 -21t69.5 -55t58.5 -74.5t48 -81.5t35 -75
t22 -55l8 -21q-117 148 -319 148q-49 0 -88 30t-39 76q0 53 33.5 91t93.5 38zM643 1214q38 -37 48.5 -102t-2.5 -131t-31.5 -126.5t-35.5 -98.5l-18 -39q20 191 -125 330q-35 35 -42 81.5t24 83.5q23 23 53 34t65 3.5t64 -35.5z" />
    <glyph glyph-name="five" unicode="5" horiz-adv-x="466" 
d="M227 -14q-82 0 -118.5 69t-36.5 238q0 52 4 102h84q-4 -46 -4 -96q0 -129 16.5 -176t54.5 -47q15 0 25.5 6.5t21 28.5t17 61t10.5 108t4 166q0 120 -1.5 181t-8.5 105.5t-18.5 57.5t-32.5 13q-40 0 -58.5 -64t-25.5 -172l-84 6l28 775h285v-91h-207l-28 -544h4
q12 89 37.5 127.5t74.5 38.5q40 0 63.5 -17t38 -68t19 -129.5t4.5 -215.5q0 -145 -11 -238.5t-34.5 -141.5t-51.5 -65.5t-71 -17.5z" />
    <glyph glyph-name="six" unicode="6" horiz-adv-x="466" 
d="M240 -14q-36 0 -60.5 10.5t-44.5 40.5t-31.5 76t-19.5 124t-11 178t-3 244q0 229 9 367.5t32 213t53.5 98.5t81.5 24q83 0 111 -79.5t28 -305.5q0 -30 -4 -100h-82q2 45 2 100q0 96 -2.5 151.5t-9.5 88.5t-17.5 44t-29.5 11q-31 0 -47 -36t-25.5 -163.5t-9.5 -380.5
q0 -50 -4 -78h4q10 73 36 110.5t80 37.5q74 0 97.5 -74t23.5 -276q0 -171 -15 -262t-48 -127.5t-94 -36.5zM242 72q26 0 40 23.5t21.5 97t7.5 217.5q0 167 -12 221.5t-49 54.5q-42 0 -65 -74t-23 -217q3 -136 12 -206t24.5 -93.5t43.5 -23.5z" />
    <glyph glyph-name="seven" unicode="7" horiz-adv-x="466" 
d="M104 0q89 712 258 1255v2h-333v91h422v-82q-162 -528 -248 -1266h-99z" />
    <glyph glyph-name="eight" unicode="8" horiz-adv-x="466" 
d="M233 -14q-63 0 -98 32t-52 116t-17 239q0 159 20 232t68 95v2q-40 21 -57 89.5t-17 218.5q0 139 15 215t47.5 106.5t90.5 30.5q59 0 91.5 -31t47.5 -106.5t15 -214.5q0 -150 -17 -218.5t-57 -89.5v-2q48 -22 68 -95t20 -232q0 -155 -17.5 -239t-52.5 -116t-98 -32z
M233 731q27 0 41.5 22.5t21.5 81t7 166.5q0 164 -15 219.5t-55 55.5q-26 0 -39.5 -22t-20.5 -81.5t-7 -171.5q0 -159 14.5 -214.5t52.5 -55.5zM233 72q30 0 45.5 21t24 87.5t8.5 194.5q0 161 -17 222.5t-61 61.5q-43 0 -60 -62t-17 -222q0 -128 9 -194.5t24 -87.5t44 -21z
" />
    <glyph glyph-name="nine" unicode="9" horiz-adv-x="466" 
d="M236 -14q-86 0 -122 76t-36 276q0 49 2 94h84q-2 -45 -2 -88q0 -159 15.5 -214.5t55.5 -55.5q17 0 28.5 7.5t20 33t13 61t7.5 106.5t4 153t1 216l2 72h-4q-11 -94 -35 -135t-73 -41q-78 0 -102.5 77.5t-24.5 295.5q0 180 19 278.5t52 131t92 32.5q42 0 68.5 -17t46 -57
t29.5 -120.5t14.5 -192t5.5 -287.5q0 -154 -2.5 -259t-10 -186.5t-18.5 -128.5t-30 -77.5t-42.5 -40.5t-57.5 -10zM215 625q44 0 67 94t23 258q-3 124 -12.5 190.5t-24 87.5t-39.5 21q-26 0 -40.5 -23.5t-23.5 -103.5t-9 -231q0 -176 11.5 -234.5t47.5 -58.5z" />
    <glyph glyph-name="colon" unicode=":" horiz-adv-x="321" 
d="M113 745v179h94v-179h-94zM113 0v180h94v-180h-94z" />
    <glyph glyph-name="semicolon" unicode=";" horiz-adv-x="321" 
d="M113 745v179h94v-179h-94zM82 -199v64q33 10 49 39t16 92v4h-34v180h94v-123q0 -122 -28.5 -180.5t-96.5 -75.5z" />
    <glyph glyph-name="less" unicode="&#x3c;" 
d="M207 403q-13 0 -19 -2v-200q4 -2 19 -2q37 0 50 25t13 77q0 54 -13 78t-50 24zM518 330v-49h-82v-78h96v-49h-155v297h155v-52h-96v-69h82zM203 150q-47 0 -74 4v292q61 9 76 9q67 0 96 -37.5t29 -116.5t-29.5 -115t-97.5 -36zM586 451h80l39 -164l38 164h82
q3 -45 13 -297h-60q0 108 -6 213l-41 -168h-55l-41 168h-2q-4 -140 -4 -213h-58q3 156 15 297zM987 150q-60 0 -84 35.5t-24 115.5q0 81 24 117.5t84 36.5t85.5 -37t25.5 -117q0 -79 -25.5 -115t-85.5 -36zM987 403q-29 0 -39 -23.5t-10 -78.5q0 -54 10 -78t39 -24
q30 0 40.5 24t10.5 78q0 55 -10 78.5t-41 23.5zM967 1016q49 0 79.5 -24.5t39 -51t8.5 -53.5q0 -43 -34.5 -72.5t-72.5 -34.5q-213 -23 -340 -147q3 8 9 22t25 53.5t39 75.5t50 80.5t59.5 76t66 53.5t71.5 22zM285 909q39 0 78 -21t69.5 -55t58.5 -74.5t48 -81.5t35 -75
t22 -55l8 -21q-117 148 -319 148q-49 0 -88 30t-39 76q0 53 33.5 91t93.5 38zM643 1214q38 -37 48.5 -102t-2.5 -131t-31.5 -126.5t-35.5 -98.5l-18 -39q20 191 -125 330q-35 35 -42 81.5t24 83.5q23 23 53 34t65 3.5t64 -35.5z" />
    <glyph glyph-name="equal" unicode="=" 
d="M207 403q-13 0 -19 -2v-200q4 -2 19 -2q37 0 50 25t13 77q0 54 -13 78t-50 24zM518 330v-49h-82v-78h96v-49h-155v297h155v-52h-96v-69h82zM203 150q-47 0 -74 4v292q61 9 76 9q67 0 96 -37.5t29 -116.5t-29.5 -115t-97.5 -36zM586 451h80l39 -164l38 164h82
q3 -45 13 -297h-60q0 108 -6 213l-41 -168h-55l-41 168h-2q-4 -140 -4 -213h-58q3 156 15 297zM987 150q-60 0 -84 35.5t-24 115.5q0 81 24 117.5t84 36.5t85.5 -37t25.5 -117q0 -79 -25.5 -115t-85.5 -36zM987 403q-29 0 -39 -23.5t-10 -78.5q0 -54 10 -78t39 -24
q30 0 40.5 24t10.5 78q0 55 -10 78.5t-41 23.5zM967 1016q49 0 79.5 -24.5t39 -51t8.5 -53.5q0 -43 -34.5 -72.5t-72.5 -34.5q-213 -23 -340 -147q3 8 9 22t25 53.5t39 75.5t50 80.5t59.5 76t66 53.5t71.5 22zM285 909q39 0 78 -21t69.5 -55t58.5 -74.5t48 -81.5t35 -75
t22 -55l8 -21q-117 148 -319 148q-49 0 -88 30t-39 76q0 53 33.5 91t93.5 38zM643 1214q38 -37 48.5 -102t-2.5 -131t-31.5 -126.5t-35.5 -98.5l-18 -39q20 191 -125 330q-35 35 -42 81.5t24 83.5q23 23 53 34t65 3.5t64 -35.5z" />
    <glyph glyph-name="greater" unicode="&#x3e;" 
d="M207 403q-13 0 -19 -2v-200q4 -2 19 -2q37 0 50 25t13 77q0 54 -13 78t-50 24zM518 330v-49h-82v-78h96v-49h-155v297h155v-52h-96v-69h82zM203 150q-47 0 -74 4v292q61 9 76 9q67 0 96 -37.5t29 -116.5t-29.5 -115t-97.5 -36zM586 451h80l39 -164l38 164h82
q3 -45 13 -297h-60q0 108 -6 213l-41 -168h-55l-41 168h-2q-4 -140 -4 -213h-58q3 156 15 297zM987 150q-60 0 -84 35.5t-24 115.5q0 81 24 117.5t84 36.5t85.5 -37t25.5 -117q0 -79 -25.5 -115t-85.5 -36zM987 403q-29 0 -39 -23.5t-10 -78.5q0 -54 10 -78t39 -24
q30 0 40.5 24t10.5 78q0 55 -10 78.5t-41 23.5zM967 1016q49 0 79.5 -24.5t39 -51t8.5 -53.5q0 -43 -34.5 -72.5t-72.5 -34.5q-213 -23 -340 -147q3 8 9 22t25 53.5t39 75.5t50 80.5t59.5 76t66 53.5t71.5 22zM285 909q39 0 78 -21t69.5 -55t58.5 -74.5t48 -81.5t35 -75
t22 -55l8 -21q-117 148 -319 148q-49 0 -88 30t-39 76q0 53 33.5 91t93.5 38zM643 1214q38 -37 48.5 -102t-2.5 -131t-31.5 -126.5t-35.5 -98.5l-18 -39q20 191 -125 330q-35 35 -42 81.5t24 83.5q23 23 53 34t65 3.5t64 -35.5z" />
    <glyph glyph-name="question" unicode="?" horiz-adv-x="481" 
d="M129 322v372h72q9 -85 22.5 -120t40.5 -35q24 0 37 25t20 102t7 223q0 173 -7.5 260.5t-21.5 116t-41 28.5q-25 0 -39.5 -19.5t-24.5 -91.5t-10 -206q0 -59 2 -96h-82q-2 29 -2 106q0 122 9.5 200t31 118.5t47.5 54.5t66 14q61 0 92 -36.5t46.5 -139.5t15.5 -305
q0 -173 -16 -270t-42 -129.5t-69 -32.5q-40 0 -58.5 21.5t-29.5 62.5h-2l4 -223h-68zM117 0v180h94v-180h-94z" />
    <glyph glyph-name="at" unicode="@" 
d="M207 403q-13 0 -19 -2v-200q4 -2 19 -2q37 0 50 25t13 77q0 54 -13 78t-50 24zM518 330v-49h-82v-78h96v-49h-155v297h155v-52h-96v-69h82zM203 150q-47 0 -74 4v292q61 9 76 9q67 0 96 -37.5t29 -116.5t-29.5 -115t-97.5 -36zM586 451h80l39 -164l38 164h82
q3 -45 13 -297h-60q0 108 -6 213l-41 -168h-55l-41 168h-2q-4 -140 -4 -213h-58q3 156 15 297zM987 150q-60 0 -84 35.5t-24 115.5q0 81 24 117.5t84 36.5t85.5 -37t25.5 -117q0 -79 -25.5 -115t-85.5 -36zM987 403q-29 0 -39 -23.5t-10 -78.5q0 -54 10 -78t39 -24
q30 0 40.5 24t10.5 78q0 55 -10 78.5t-41 23.5zM967 1016q49 0 79.5 -24.5t39 -51t8.5 -53.5q0 -43 -34.5 -72.5t-72.5 -34.5q-213 -23 -340 -147q3 8 9 22t25 53.5t39 75.5t50 80.5t59.5 76t66 53.5t71.5 22zM285 909q39 0 78 -21t69.5 -55t58.5 -74.5t48 -81.5t35 -75
t22 -55l8 -21q-117 148 -319 148q-49 0 -88 30t-39 76q0 53 33.5 91t93.5 38zM643 1214q38 -37 48.5 -102t-2.5 -131t-31.5 -126.5t-35.5 -98.5l-18 -39q20 191 -125 330q-35 35 -42 81.5t24 83.5q23 23 53 34t65 3.5t64 -35.5z" />
    <glyph glyph-name="A" unicode="A" horiz-adv-x="479" 
d="M338 0l-27 346h-149l-27 -346h-98l133 1348h141l133 -1348h-106zM168 418h137l-65 825h-7z" />
    <glyph glyph-name="B" unicode="B" horiz-adv-x="466" 
d="M74 0v1348h133q49 0 82 -14t53 -37.5t30.5 -69t13.5 -94.5t3 -127q0 -150 -17.5 -214.5t-68.5 -84.5v-2q61 -22 82 -93.5t21 -230.5q0 -100 -5.5 -165t-17 -109.5t-34 -67t-51 -31t-73.5 -8.5h-151zM168 733h33q42 0 63 21.5t29 74.5t8 162q0 58 -0.5 90t-3.5 68t-9 53.5
t-16.5 34t-26 22t-38.5 5.5h-39v-531zM168 84h55q40 0 56.5 19t24 81.5t7.5 206.5q0 160 -17.5 215.5t-82.5 55.5h-43v-578z" />
    <glyph glyph-name="C" unicode="C" horiz-adv-x="454" 
d="M236 -14q-72 0 -106.5 48t-50.5 193t-16 447q0 225 9.5 362.5t33 209t53 94t79.5 22.5q95 0 124 -82t29 -326q0 -64 -6 -217h-86q6 153 6 215q0 103 -2.5 160.5t-10 96t-20 51t-34.5 12.5q-23 0 -36 -18t-24 -78.5t-15.5 -181t-4.5 -320.5q0 -141 1 -231.5t4.5 -161.5
t8.5 -108t14.5 -60.5t20.5 -30t29 -6.5q28 0 42.5 26t20.5 90.5t6 192.5q0 69 -4 135h86q4 -66 4 -135q0 -159 -14.5 -244t-47 -120t-93.5 -35z" />
    <glyph glyph-name="D" unicode="D" horiz-adv-x="479" 
d="M74 0v1348h129q46 0 77 -9.5t56 -38.5t39.5 -73.5t24 -123t13 -178.5t3.5 -247q0 -158 -3 -262t-12.5 -183.5t-22.5 -122t-38.5 -69t-54 -34t-74.5 -7.5h-137zM168 90h47q38 0 56 13.5t30.5 81t15 171.5t2.5 322q0 134 -1.5 219.5t-6.5 155t-12 105.5t-21 60.5
t-30.5 31.5t-42.5 7h-37v-1167z" />
    <glyph glyph-name="E" unicode="E" horiz-adv-x="352" 
d="M74 0v1348h256v-91h-162v-544h137v-70h-137v-553h174v-90h-268z" />
    <glyph glyph-name="F" unicode="F" horiz-adv-x="339" 
d="M74 0v1348h254v-91h-160v-573h137v-78h-137v-606h-94z" />
    <glyph glyph-name="G" unicode="G" horiz-adv-x="462" 
d="M215 -14q-59 0 -89 45t-46.5 191.5t-16.5 434.5q0 303 19 456t54.5 201t105.5 48q62 0 95 -39t47.5 -126.5t14.5 -248.5q0 -31 -6 -190h-88q6 74 6 186q0 132 -6.5 201.5t-21 98t-41.5 28.5q-32 0 -48.5 -38.5t-26 -174t-9.5 -404.5q0 -251 9 -379t23.5 -164t42.5 -36
q78 0 78 360v119h-73v76h161v-631h-82q7 108 9 162h-2q-10 -94 -36.5 -135t-72.5 -41z" />
    <glyph glyph-name="H" unicode="H" horiz-adv-x="526" 
d="M74 0v1348h94v-603h190v603h95v-1348h-95v662h-190v-662h-94z" />
    <glyph glyph-name="I" unicode="I" horiz-adv-x="258" 
d="M82 0v1348h94v-1348h-94z" />
    <glyph glyph-name="J" unicode="J" horiz-adv-x="438" 
d="M211 -14q-90 0 -123 92.5t-33 329.5q0 117 4 235h86q-4 -126 -4 -237q0 -190 15 -260t53 -70q19 0 30.5 15t19 59t10.5 118.5t3 200.5v879h97v-863q0 -203 -15 -309t-47.5 -148t-95.5 -42z" />
    <glyph glyph-name="K" unicode="K" horiz-adv-x="466" 
d="M74 0v1348h94v-756h2l174 756h96l-155 -615l164 -733h-99l-123 606l-59 -223v-383h-94z" />
    <glyph glyph-name="L" unicode="L" horiz-adv-x="321" 
d="M74 0v1348h94v-1258h135v-90h-229z" />
    <glyph glyph-name="M" unicode="M" horiz-adv-x="645" 
d="M74 0v1348h157l88 -1121h5l92 1121h155v-1348h-96l12 1268h-6l-123 -1268h-79l-123 1268h-6l12 -1268h-88z" />
    <glyph glyph-name="N" unicode="N" horiz-adv-x="540" 
d="M74 0v1348h143l176 -1192h4l-18 1192h88v-1348h-125l-190 1247h-5l15 -1247h-88z" />
    <glyph glyph-name="O" unicode="O" horiz-adv-x="466" 
d="M233 -14q-67 0 -100.5 46.5t-51.5 197t-18 450.5q0 288 18 436t52 197t100 49t100 -49t52 -197t18 -436q0 -297 -17 -446t-51 -198.5t-102 -49.5zM233 76q29 0 44 37.5t23.5 170t8.5 396.5q0 256 -8.5 386t-23.5 168t-44 38t-43.5 -38t-23 -167.5t-8.5 -386.5
q0 -268 8.5 -400t23 -168t43.5 -36z" />
    <glyph glyph-name="P" unicode="P" horiz-adv-x="460" 
d="M74 0v1348h123q63 0 99 -15.5t61.5 -65.5t34.5 -138.5t9 -239.5q0 -144 -9.5 -231t-34.5 -136t-59 -65.5t-91 -16.5h-39v-440h-94zM168 520h39q43 0 64.5 23.5t32.5 101.5t11 236q0 170 -10 248.5t-31.5 103t-68.5 24.5h-37v-737z" />
    <glyph glyph-name="Q" unicode="Q" horiz-adv-x="485" 
d="M233 -14q-67 0 -101 47t-51.5 197t-17.5 450q0 288 18 436t52 197t100 49t100 -47.5t52 -192t18 -426.5q0 -346 -14.5 -469.5t-58.5 -152.5v-2q16 0 49.5 2t42.5 2v-90h-189zM233 76q29 0 44 37.5t23.5 170t8.5 396.5q0 256 -8.5 386t-23.5 168t-44 38t-43.5 -38
t-23 -167.5t-8.5 -386.5q0 -268 8.5 -400t23 -168t43.5 -36z" />
    <glyph glyph-name="R" unicode="R" horiz-adv-x="487" 
d="M74 0v1348h145q51 0 84.5 -11t56.5 -34.5t34.5 -70t16.5 -108t5 -159.5q0 -164 -18.5 -233.5t-73.5 -90.5v-2q92 -23 92 -170v-469h-97v475q0 69 -23.5 95t-80.5 26h-47v-596h-94zM168 668h43q44 0 65.5 18.5t32 78t10.5 181.5q0 139 -7.5 201t-27.5 86t-65 24h-51v-589z
" />
    <glyph glyph-name="S" unicode="S" horiz-adv-x="438" 
d="M219 -14q-36 0 -61 8.5t-44 32t-30 57t-17.5 91.5t-9 126t-2.5 170h86q0 -130 3.5 -206t13 -120.5t23.5 -58.5t38 -14q30 0 44.5 20.5t20 71t5.5 158.5q0 135 -25 192q-17 39 -74 104q-60 65 -88 119q-47 88 -47 273q0 137 18.5 215t52.5 107.5t91 29.5q35 0 57.5 -6.5
t41 -29t27.5 -55.5t15.5 -97.5t8.5 -142t2 -200.5h-88q0 160 -1.5 239.5t-9 131t-18.5 63t-33 11.5q-26 0 -40 -20.5t-21.5 -76.5t-7.5 -161q0 -168 30 -230q17 -35 78 -104q69 -77 88 -123q37 -73 37 -235q0 -138 -15.5 -210t-49.5 -101t-99 -29z" />
    <glyph glyph-name="T" unicode="T" horiz-adv-x="385" 
d="M145 0v1257h-141v91h377v-91h-141v-1257h-95z" />
    <glyph glyph-name="U" unicode="U" horiz-adv-x="471" 
d="M236 -14q-40 0 -68 11.5t-51.5 41.5t-35 86.5t-11.5 140.5v1082h94v-1092q0 -105 20 -140.5t58 -35.5q22 0 36 11.5t24.5 52t10.5 112.5v1092h88v-1082q0 -84 -11.5 -140.5t-34.5 -86.5t-51 -41.5t-68 -11.5z" />
    <glyph glyph-name="V" unicode="V" horiz-adv-x="479" 
d="M168 0l-131 1348h104l101 -1235h8l94 1235h98l-131 -1348h-143z" />
    <glyph glyph-name="W" unicode="W" horiz-adv-x="702" 
d="M139 0l-102 1348h104l64 -1207h8l82 1207h117l84 -1207h8l65 1207h97l-105 -1348h-131l-76 1180h-8l-80 -1180h-127z" />
    <glyph glyph-name="X" unicode="X" horiz-adv-x="454" 
d="M37 0l129 688l-125 660h111l81 -562l86 562h93l-125 -660l131 -688h-109l-86 582l-92 -582h-94z" />
    <glyph glyph-name="Y" unicode="Y" horiz-adv-x="436" 
d="M170 0v477l-133 871h106l80 -715h4l78 715h94l-135 -871v-477h-94z" />
    <glyph glyph-name="Z" unicode="Z" horiz-adv-x="364" 
d="M29 0v63l211 1192v2h-191v91h289v-60l-209 -1196v-2h207v-90h-307z" />
    <glyph glyph-name="bracketleft" unicode="[" 
d="M207 403q-13 0 -19 -2v-200q4 -2 19 -2q37 0 50 25t13 77q0 54 -13 78t-50 24zM518 330v-49h-82v-78h96v-49h-155v297h155v-52h-96v-69h82zM203 150q-47 0 -74 4v292q61 9 76 9q67 0 96 -37.5t29 -116.5t-29.5 -115t-97.5 -36zM586 451h80l39 -164l38 164h82
q3 -45 13 -297h-60q0 108 -6 213l-41 -168h-55l-41 168h-2q-4 -140 -4 -213h-58q3 156 15 297zM987 150q-60 0 -84 35.5t-24 115.5q0 81 24 117.5t84 36.5t85.5 -37t25.5 -117q0 -79 -25.5 -115t-85.5 -36zM987 403q-29 0 -39 -23.5t-10 -78.5q0 -54 10 -78t39 -24
q30 0 40.5 24t10.5 78q0 55 -10 78.5t-41 23.5zM967 1016q49 0 79.5 -24.5t39 -51t8.5 -53.5q0 -43 -34.5 -72.5t-72.5 -34.5q-213 -23 -340 -147q3 8 9 22t25 53.5t39 75.5t50 80.5t59.5 76t66 53.5t71.5 22zM285 909q39 0 78 -21t69.5 -55t58.5 -74.5t48 -81.5t35 -75
t22 -55l8 -21q-117 148 -319 148q-49 0 -88 30t-39 76q0 53 33.5 91t93.5 38zM643 1214q38 -37 48.5 -102t-2.5 -131t-31.5 -126.5t-35.5 -98.5l-18 -39q20 191 -125 330q-35 35 -42 81.5t24 83.5q23 23 53 34t65 3.5t64 -35.5z" />
    <glyph glyph-name="backslash" unicode="\" 
d="M207 403q-13 0 -19 -2v-200q4 -2 19 -2q37 0 50 25t13 77q0 54 -13 78t-50 24zM518 330v-49h-82v-78h96v-49h-155v297h155v-52h-96v-69h82zM203 150q-47 0 -74 4v292q61 9 76 9q67 0 96 -37.5t29 -116.5t-29.5 -115t-97.5 -36zM586 451h80l39 -164l38 164h82
q3 -45 13 -297h-60q0 108 -6 213l-41 -168h-55l-41 168h-2q-4 -140 -4 -213h-58q3 156 15 297zM987 150q-60 0 -84 35.5t-24 115.5q0 81 24 117.5t84 36.5t85.5 -37t25.5 -117q0 -79 -25.5 -115t-85.5 -36zM987 403q-29 0 -39 -23.5t-10 -78.5q0 -54 10 -78t39 -24
q30 0 40.5 24t10.5 78q0 55 -10 78.5t-41 23.5zM967 1016q49 0 79.5 -24.5t39 -51t8.5 -53.5q0 -43 -34.5 -72.5t-72.5 -34.5q-213 -23 -340 -147q3 8 9 22t25 53.5t39 75.5t50 80.5t59.5 76t66 53.5t71.5 22zM285 909q39 0 78 -21t69.5 -55t58.5 -74.5t48 -81.5t35 -75
t22 -55l8 -21q-117 148 -319 148q-49 0 -88 30t-39 76q0 53 33.5 91t93.5 38zM643 1214q38 -37 48.5 -102t-2.5 -131t-31.5 -126.5t-35.5 -98.5l-18 -39q20 191 -125 330q-35 35 -42 81.5t24 83.5q23 23 53 34t65 3.5t64 -35.5z" />
    <glyph glyph-name="bracketright" unicode="]" 
d="M207 403q-13 0 -19 -2v-200q4 -2 19 -2q37 0 50 25t13 77q0 54 -13 78t-50 24zM518 330v-49h-82v-78h96v-49h-155v297h155v-52h-96v-69h82zM203 150q-47 0 -74 4v292q61 9 76 9q67 0 96 -37.5t29 -116.5t-29.5 -115t-97.5 -36zM586 451h80l39 -164l38 164h82
q3 -45 13 -297h-60q0 108 -6 213l-41 -168h-55l-41 168h-2q-4 -140 -4 -213h-58q3 156 15 297zM987 150q-60 0 -84 35.5t-24 115.5q0 81 24 117.5t84 36.5t85.5 -37t25.5 -117q0 -79 -25.5 -115t-85.5 -36zM987 403q-29 0 -39 -23.5t-10 -78.5q0 -54 10 -78t39 -24
q30 0 40.5 24t10.5 78q0 55 -10 78.5t-41 23.5zM967 1016q49 0 79.5 -24.5t39 -51t8.5 -53.5q0 -43 -34.5 -72.5t-72.5 -34.5q-213 -23 -340 -147q3 8 9 22t25 53.5t39 75.5t50 80.5t59.5 76t66 53.5t71.5 22zM285 909q39 0 78 -21t69.5 -55t58.5 -74.5t48 -81.5t35 -75
t22 -55l8 -21q-117 148 -319 148q-49 0 -88 30t-39 76q0 53 33.5 91t93.5 38zM643 1214q38 -37 48.5 -102t-2.5 -131t-31.5 -126.5t-35.5 -98.5l-18 -39q20 191 -125 330q-35 35 -42 81.5t24 83.5q23 23 53 34t65 3.5t64 -35.5z" />
    <glyph glyph-name="asciicircum" unicode="^" 
d="M207 403q-13 0 -19 -2v-200q4 -2 19 -2q37 0 50 25t13 77q0 54 -13 78t-50 24zM518 330v-49h-82v-78h96v-49h-155v297h155v-52h-96v-69h82zM203 150q-47 0 -74 4v292q61 9 76 9q67 0 96 -37.5t29 -116.5t-29.5 -115t-97.5 -36zM586 451h80l39 -164l38 164h82
q3 -45 13 -297h-60q0 108 -6 213l-41 -168h-55l-41 168h-2q-4 -140 -4 -213h-58q3 156 15 297zM987 150q-60 0 -84 35.5t-24 115.5q0 81 24 117.5t84 36.5t85.5 -37t25.5 -117q0 -79 -25.5 -115t-85.5 -36zM987 403q-29 0 -39 -23.5t-10 -78.5q0 -54 10 -78t39 -24
q30 0 40.5 24t10.5 78q0 55 -10 78.5t-41 23.5zM967 1016q49 0 79.5 -24.5t39 -51t8.5 -53.5q0 -43 -34.5 -72.5t-72.5 -34.5q-213 -23 -340 -147q3 8 9 22t25 53.5t39 75.5t50 80.5t59.5 76t66 53.5t71.5 22zM285 909q39 0 78 -21t69.5 -55t58.5 -74.5t48 -81.5t35 -75
t22 -55l8 -21q-117 148 -319 148q-49 0 -88 30t-39 76q0 53 33.5 91t93.5 38zM643 1214q38 -37 48.5 -102t-2.5 -131t-31.5 -126.5t-35.5 -98.5l-18 -39q20 191 -125 330q-35 35 -42 81.5t24 83.5q23 23 53 34t65 3.5t64 -35.5z" />
    <glyph glyph-name="underscore" unicode="_" 
d="M207 403q-13 0 -19 -2v-200q4 -2 19 -2q37 0 50 25t13 77q0 54 -13 78t-50 24zM518 330v-49h-82v-78h96v-49h-155v297h155v-52h-96v-69h82zM203 150q-47 0 -74 4v292q61 9 76 9q67 0 96 -37.5t29 -116.5t-29.5 -115t-97.5 -36zM586 451h80l39 -164l38 164h82
q3 -45 13 -297h-60q0 108 -6 213l-41 -168h-55l-41 168h-2q-4 -140 -4 -213h-58q3 156 15 297zM987 150q-60 0 -84 35.5t-24 115.5q0 81 24 117.5t84 36.5t85.5 -37t25.5 -117q0 -79 -25.5 -115t-85.5 -36zM987 403q-29 0 -39 -23.5t-10 -78.5q0 -54 10 -78t39 -24
q30 0 40.5 24t10.5 78q0 55 -10 78.5t-41 23.5zM967 1016q49 0 79.5 -24.5t39 -51t8.5 -53.5q0 -43 -34.5 -72.5t-72.5 -34.5q-213 -23 -340 -147q3 8 9 22t25 53.5t39 75.5t50 80.5t59.5 76t66 53.5t71.5 22zM285 909q39 0 78 -21t69.5 -55t58.5 -74.5t48 -81.5t35 -75
t22 -55l8 -21q-117 148 -319 148q-49 0 -88 30t-39 76q0 53 33.5 91t93.5 38zM643 1214q38 -37 48.5 -102t-2.5 -131t-31.5 -126.5t-35.5 -98.5l-18 -39q20 191 -125 330q-35 35 -42 81.5t24 83.5q23 23 53 34t65 3.5t64 -35.5z" />
    <glyph glyph-name="grave" unicode="`" 
d="M207 403q-13 0 -19 -2v-200q4 -2 19 -2q37 0 50 25t13 77q0 54 -13 78t-50 24zM518 330v-49h-82v-78h96v-49h-155v297h155v-52h-96v-69h82zM203 150q-47 0 -74 4v292q61 9 76 9q67 0 96 -37.5t29 -116.5t-29.5 -115t-97.5 -36zM586 451h80l39 -164l38 164h82
q3 -45 13 -297h-60q0 108 -6 213l-41 -168h-55l-41 168h-2q-4 -140 -4 -213h-58q3 156 15 297zM987 150q-60 0 -84 35.5t-24 115.5q0 81 24 117.5t84 36.5t85.5 -37t25.5 -117q0 -79 -25.5 -115t-85.5 -36zM987 403q-29 0 -39 -23.5t-10 -78.5q0 -54 10 -78t39 -24
q30 0 40.5 24t10.5 78q0 55 -10 78.5t-41 23.5zM967 1016q49 0 79.5 -24.5t39 -51t8.5 -53.5q0 -43 -34.5 -72.5t-72.5 -34.5q-213 -23 -340 -147q3 8 9 22t25 53.5t39 75.5t50 80.5t59.5 76t66 53.5t71.5 22zM285 909q39 0 78 -21t69.5 -55t58.5 -74.5t48 -81.5t35 -75
t22 -55l8 -21q-117 148 -319 148q-49 0 -88 30t-39 76q0 53 33.5 91t93.5 38zM643 1214q38 -37 48.5 -102t-2.5 -131t-31.5 -126.5t-35.5 -98.5l-18 -39q20 191 -125 330q-35 35 -42 81.5t24 83.5q23 23 53 34t65 3.5t64 -35.5z" />
    <glyph glyph-name="a" unicode="a" horiz-adv-x="456" 
d="M186 -10q-73 0 -102 68t-29 204q0 134 38.5 203.5t131.5 69.5h78v225q0 106 -14 144t-53 38q-41 0 -57.5 -44.5t-16.5 -152.5q0 -37 6 -106h-84q-6 54 -6 111q0 145 37.5 208.5t124.5 63.5t120 -58t33 -210v-754h-90q8 140 8 186h-2q-11 -104 -39.5 -150t-83.5 -46z
M209 70q94 0 94 358v41h-70q-56 0 -75 -48t-19 -151q0 -200 70 -200z" />
    <glyph glyph-name="b" unicode="b" horiz-adv-x="520" 
d="M303 -10q-63 0 -93.5 50.5t-43.5 160.5h-2q0 -111 8 -201h-90v1397h90v-373q0 -55 -8 -203h2q10 108 46.5 154.5t96.5 46.5t92.5 -41.5t48 -148.5t15.5 -306q0 -162 -11 -270t-33.5 -165t-50 -79t-67.5 -22zM281 74q18 0 31 9t25.5 37.5t20.5 77t12.5 130.5t4.5 196
q0 168 -10 259t-28.5 123t-51.5 32q-34 0 -57.5 -31t-39.5 -122.5t-16 -243.5v-105q0 -163 30.5 -262.5t78.5 -99.5z" />
    <glyph glyph-name="c" unicode="c" horiz-adv-x="442" 
d="M227 -10q-64 0 -100 45t-54 157.5t-18 313.5q0 161 10 263.5t33.5 157.5t54 75t78.5 20q62 0 94 -34.5t47 -122.5t15 -257h-84q0 140 -7.5 211t-22 95t-42.5 24q-33 0 -50 -28t-26.5 -122t-9.5 -282q0 -177 9 -271.5t26.5 -127.5t48.5 -33t46 22.5t21.5 90t6.5 212.5h84
q0 -172 -14.5 -258t-47.5 -118.5t-98 -32.5z" />
    <glyph glyph-name="d" unicode="d" horiz-adv-x="520" 
d="M219 -10q-60 0 -95 48.5t-52 165t-17 320.5q0 195 19 306t53 151.5t90 40.5q113 0 127 -158h2v533h90v-1397h-90q8 142 10 229h-2q-12 -126 -43 -182.5t-92 -56.5zM238 74q48 0 78 113.5t30 295.5v66q0 201 -28.5 295t-77.5 94q-23 0 -39 -17t-29.5 -61t-20 -127.5
t-6.5 -208.5q0 -257 21 -353.5t72 -96.5z" />
    <glyph glyph-name="e" unicode="e" horiz-adv-x="444" 
d="M391 516h-246v-18q0 -239 18.5 -333.5t69.5 -94.5q27 0 41.5 21.5t22.5 83.5t8 177h86q0 -140 -18 -220t-52 -111t-92 -31q-101 0 -137.5 117.5t-36.5 390.5q0 132 8 226t22 151.5t37.5 90.5t49 44.5t61.5 11.5q59 0 91 -34t49.5 -132.5t17.5 -282.5v-57zM233 942
q-21 0 -35 -12t-26.5 -48.5t-19 -110t-7.5 -189.5h160v12q0 147 -8 223t-22.5 100.5t-41.5 24.5z" />
    <glyph glyph-name="f" unicode="f" horiz-adv-x="321" 
d="M96 0v928h-94v84h94v172q0 115 39 166t129 51q44 0 64 -8v-84q-25 10 -56 10q-51 0 -68.5 -31.5t-17.5 -105.5v-170h150v-84h-150v-928h-90z" />
    <glyph glyph-name="g" unicode="g" horiz-adv-x="456" 
d="M252 102q88 0 127 -56t39 -171q0 -143 -44 -213t-141 -70q-56 0 -94.5 23t-57.5 62t-26.5 79t-7.5 86q0 178 78 201v4q-39 34 -39 121q0 91 37 117v2q-64 67 -64 348q0 156 17.5 240t52 115.5t96.5 31.5q45 0 76 -16v2q-31 34 -31 92q0 51 26.5 77.5t76.5 26.5
q23 0 41 -6v-80q-16 4 -31 4q-51 0 -51 -55q0 -44 20 -119q41 -78 41 -313q0 -157 -18.5 -241.5t-53 -113t-96.5 -28.5q-29 0 -53 6q-10 -20 -10 -68q0 -88 43 -88h47zM225 942q-31 0 -47 -20.5t-24.5 -87.5t-8.5 -199q0 -133 9 -199.5t24.5 -86t46.5 -19.5t47 19.5
t25.5 86.5t9.5 199t-9 199t-25 87.5t-48 20.5zM233 -330q51 0 73 43.5t22 145.5q0 83 -19 121t-71 38h-23q-82 0 -82 -172q0 -27 1.5 -47.5t7.5 -46t16 -42.5t29.5 -28.5t45.5 -11.5z" />
    <glyph glyph-name="h" unicode="h" horiz-adv-x="518" 
d="M82 0v1397h90v-385l-10 -201h2q15 99 35 139q37 72 118 72q42 0 70 -18t42.5 -53t20 -75.5t5.5 -97.5v-778h-90v774q0 82 -15 123t-61 41q-58 0 -87.5 -79.5t-29.5 -213.5v-645h-90z" />
    <glyph glyph-name="i" unicode="i" horiz-adv-x="256" 
d="M80 1102v166h94v-166h-94zM82 0v1012h90v-1012h-90z" />
    <glyph glyph-name="j" unicode="j" horiz-adv-x="256" 
d="M80 1102v166h94v-166h-94zM35 -399q-48 0 -68 10v82q16 -8 47 -8q34 0 51 28.5t17 73.5v1225h90v-1229q0 -182 -137 -182z" />
    <glyph glyph-name="k" unicode="k" horiz-adv-x="475" 
d="M82 0v1397h90v-944h2l191 559h92l-144 -412l152 -600h-98l-115 492l-80 -213v-279h-90z" />
    <glyph glyph-name="l" unicode="l" horiz-adv-x="256" 
d="M82 0v1397h90v-1397h-90z" />
    <glyph glyph-name="m" unicode="m" horiz-adv-x="753" 
d="M74 0v1012h90l-10 -183h4q8 95 39 144t98 49q116 0 129 -139h2q12 139 133 139q75 0 103 -57.5t28 -176.5v-788h-90v782q0 79 -14.5 117.5t-55.5 38.5q-55 0 -78.5 -63.5t-23.5 -196.5v-678h-90v782q0 78 -15.5 117t-56.5 39q-102 0 -102 -287v-651h-90z" />
    <glyph glyph-name="n" unicode="n" horiz-adv-x="509" 
d="M74 0v1012h90l-10 -201h2q13 107 46 159t107 52q42 0 70 -18t42 -53.5t19.5 -76t5.5 -96.5v-778h-90v774q0 81 -15.5 122.5t-59.5 41.5q-58 0 -87.5 -78t-29.5 -215v-645h-90z" />
    <glyph glyph-name="o" unicode="o" horiz-adv-x="483" 
d="M242 -10q-71 0 -110 45.5t-58 157t-19 313.5q0 201 18.5 312.5t58.5 157.5t110 46q71 0 110.5 -46t58.5 -158t19 -312q0 -202 -19 -314t-58.5 -157t-110.5 -45zM242 74q38 0 58 34.5t30 128t10 269.5q0 175 -10 268.5t-30 128.5t-58 35q-37 0 -57 -35t-30 -129t-10 -268
q0 -175 10 -269t30 -128.5t57 -34.5z" />
    <glyph glyph-name="p" unicode="p" horiz-adv-x="520" 
d="M82 -385v1397h90l-8 -197h2q9 112 44 159.5t95 47.5q57 0 90.5 -40t51.5 -149t18 -305q0 -165 -11 -274.5t-33.5 -165.5t-49.5 -77t-66 -21q-64 0 -95 50.5t-42 158.5h-2q1 -27 2.5 -85t2.5 -98t1 -57v-344h-90zM281 74q17 0 30 9.5t25.5 38t20.5 77.5t13 131t5 194
q0 167 -12 260t-31.5 123.5t-52.5 30.5q-25 0 -43 -17.5t-33 -60t-23 -123t-8 -198.5v-105q0 -360 109 -360z" />
    <glyph glyph-name="q" unicode="q" horiz-adv-x="520" 
d="M346 -385v586h-2q-9 -106 -39.5 -158.5t-89.5 -52.5q-60 0 -94 49.5t-50 165t-16 319.5q0 192 18.5 302t53 153t92.5 43q111 0 127 -160h2v150h88v-1397h-90zM238 74q53 0 80.5 107t27.5 302v66q0 389 -104 389q-33 0 -53 -31t-32 -124t-12 -259q0 -176 9.5 -273t29 -137
t54.5 -40z" />
    <glyph glyph-name="r" unicode="r" horiz-adv-x="450" 
d="M74 0v1012h90l-10 -217h4q11 116 42 171.5t91 55.5q44 0 69 -25t39.5 -100t14.5 -211q0 -112 -11 -274h-77q8 118 8 268q0 104 -8.5 162t-22.5 77t-37 19q-16 0 -29.5 -11t-27.5 -40t-23.5 -74t-15.5 -118t-6 -167v-528h-90z" />
    <glyph glyph-name="s" unicode="s" horiz-adv-x="434" 
d="M217 -10q-101 0 -131.5 74t-30.5 274h84q0 -164 14 -216t64 -52q39 0 55.5 37t16.5 137q0 111 -17 151q-16 33 -79 80q-31 22 -44 32t-32.5 30.5t-28.5 40.5q-33 56 -33 184q0 135 35.5 197.5t122.5 62.5q66 0 97.5 -29t44 -101.5t12.5 -223.5h-86q0 93 -2 142t-9.5 81.5
t-20 41.5t-34.5 9q-42 0 -56 -39t-14 -135q0 -106 21 -152q13 -26 86 -79q28 -21 40 -30.5t30.5 -30t29.5 -42.5q27 -58 27 -184q0 -144 -36.5 -202t-125.5 -58z" />
    <glyph glyph-name="t" unicode="t" horiz-adv-x="321" 
d="M242 -6q-84 0 -116 58.5t-32 195.5v680h-92v84h64q21 0 29 12.5t9 50.5l5 166h75v-229h135v-84h-135v-678q0 -100 14.5 -137t59.5 -37q23 0 47 6v-76q-20 -12 -63 -12z" />
    <glyph glyph-name="u" unicode="u" horiz-adv-x="509" 
d="M207 -10q-76 0 -108.5 68t-32.5 202v752h90v-748q0 -96 17 -143t60 -47q113 0 113 332v606h90v-1012h-90q6 73 10 207h-2q-13 -111 -45 -164t-102 -53z" />
    <glyph glyph-name="v" unicode="v" horiz-adv-x="458" 
d="M164 0l-127 1012h102l90 -903h9l92 903h92l-127 -1012h-131z" />
    <glyph glyph-name="w" unicode="w" horiz-adv-x="675" 
d="M129 0l-92 1012h96l62 -906h8l84 906h116l78 -906h8l68 906h82l-92 -1012h-131l-72 874h-6l-84 -874h-125z" />
    <glyph glyph-name="x" unicode="x" horiz-adv-x="462" 
d="M37 0l133 516l-123 496h98l93 -424l90 424h90l-121 -496l131 -516h-100l-99 440l-100 -440h-92z" />
    <glyph glyph-name="y" unicode="y" horiz-adv-x="468" 
d="M158 -393q-38 0 -70 12v84q23 -10 53 -10q39 0 56 59t36 248h-40l-156 1012h100l117 -893h4l88 893h86l-115 -1022q-17 -164 -35 -242.5t-45.5 -109.5t-78.5 -31z" />
    <glyph glyph-name="z" unicode="z" horiz-adv-x="387" 
d="M39 0v63l213 863v2h-201v84h299v-62l-217 -864v-2h217v-84h-311z" />
    <glyph glyph-name="braceleft" unicode="{" 
d="M207 403q-13 0 -19 -2v-200q4 -2 19 -2q37 0 50 25t13 77q0 54 -13 78t-50 24zM518 330v-49h-82v-78h96v-49h-155v297h155v-52h-96v-69h82zM203 150q-47 0 -74 4v292q61 9 76 9q67 0 96 -37.5t29 -116.5t-29.5 -115t-97.5 -36zM586 451h80l39 -164l38 164h82
q3 -45 13 -297h-60q0 108 -6 213l-41 -168h-55l-41 168h-2q-4 -140 -4 -213h-58q3 156 15 297zM987 150q-60 0 -84 35.5t-24 115.5q0 81 24 117.5t84 36.5t85.5 -37t25.5 -117q0 -79 -25.5 -115t-85.5 -36zM987 403q-29 0 -39 -23.5t-10 -78.5q0 -54 10 -78t39 -24
q30 0 40.5 24t10.5 78q0 55 -10 78.5t-41 23.5zM967 1016q49 0 79.5 -24.5t39 -51t8.5 -53.5q0 -43 -34.5 -72.5t-72.5 -34.5q-213 -23 -340 -147q3 8 9 22t25 53.5t39 75.5t50 80.5t59.5 76t66 53.5t71.5 22zM285 909q39 0 78 -21t69.5 -55t58.5 -74.5t48 -81.5t35 -75
t22 -55l8 -21q-117 148 -319 148q-49 0 -88 30t-39 76q0 53 33.5 91t93.5 38zM643 1214q38 -37 48.5 -102t-2.5 -131t-31.5 -126.5t-35.5 -98.5l-18 -39q20 191 -125 330q-35 35 -42 81.5t24 83.5q23 23 53 34t65 3.5t64 -35.5z" />
    <glyph glyph-name="bar" unicode="|" 
d="M207 403q-13 0 -19 -2v-200q4 -2 19 -2q37 0 50 25t13 77q0 54 -13 78t-50 24zM518 330v-49h-82v-78h96v-49h-155v297h155v-52h-96v-69h82zM203 150q-47 0 -74 4v292q61 9 76 9q67 0 96 -37.5t29 -116.5t-29.5 -115t-97.5 -36zM586 451h80l39 -164l38 164h82
q3 -45 13 -297h-60q0 108 -6 213l-41 -168h-55l-41 168h-2q-4 -140 -4 -213h-58q3 156 15 297zM987 150q-60 0 -84 35.5t-24 115.5q0 81 24 117.5t84 36.5t85.5 -37t25.5 -117q0 -79 -25.5 -115t-85.5 -36zM987 403q-29 0 -39 -23.5t-10 -78.5q0 -54 10 -78t39 -24
q30 0 40.5 24t10.5 78q0 55 -10 78.5t-41 23.5zM967 1016q49 0 79.5 -24.5t39 -51t8.5 -53.5q0 -43 -34.5 -72.5t-72.5 -34.5q-213 -23 -340 -147q3 8 9 22t25 53.5t39 75.5t50 80.5t59.5 76t66 53.5t71.5 22zM285 909q39 0 78 -21t69.5 -55t58.5 -74.5t48 -81.5t35 -75
t22 -55l8 -21q-117 148 -319 148q-49 0 -88 30t-39 76q0 53 33.5 91t93.5 38zM643 1214q38 -37 48.5 -102t-2.5 -131t-31.5 -126.5t-35.5 -98.5l-18 -39q20 191 -125 330q-35 35 -42 81.5t24 83.5q23 23 53 34t65 3.5t64 -35.5z" />
    <glyph glyph-name="braceright" unicode="}" 
d="M207 403q-13 0 -19 -2v-200q4 -2 19 -2q37 0 50 25t13 77q0 54 -13 78t-50 24zM518 330v-49h-82v-78h96v-49h-155v297h155v-52h-96v-69h82zM203 150q-47 0 -74 4v292q61 9 76 9q67 0 96 -37.5t29 -116.5t-29.5 -115t-97.5 -36zM586 451h80l39 -164l38 164h82
q3 -45 13 -297h-60q0 108 -6 213l-41 -168h-55l-41 168h-2q-4 -140 -4 -213h-58q3 156 15 297zM987 150q-60 0 -84 35.5t-24 115.5q0 81 24 117.5t84 36.5t85.5 -37t25.5 -117q0 -79 -25.5 -115t-85.5 -36zM987 403q-29 0 -39 -23.5t-10 -78.5q0 -54 10 -78t39 -24
q30 0 40.5 24t10.5 78q0 55 -10 78.5t-41 23.5zM967 1016q49 0 79.5 -24.5t39 -51t8.5 -53.5q0 -43 -34.5 -72.5t-72.5 -34.5q-213 -23 -340 -147q3 8 9 22t25 53.5t39 75.5t50 80.5t59.5 76t66 53.5t71.5 22zM285 909q39 0 78 -21t69.5 -55t58.5 -74.5t48 -81.5t35 -75
t22 -55l8 -21q-117 148 -319 148q-49 0 -88 30t-39 76q0 53 33.5 91t93.5 38zM643 1214q38 -37 48.5 -102t-2.5 -131t-31.5 -126.5t-35.5 -98.5l-18 -39q20 191 -125 330q-35 35 -42 81.5t24 83.5q23 23 53 34t65 3.5t64 -35.5z" />
    <glyph glyph-name="asciitilde" unicode="~" 
d="M207 403q-13 0 -19 -2v-200q4 -2 19 -2q37 0 50 25t13 77q0 54 -13 78t-50 24zM518 330v-49h-82v-78h96v-49h-155v297h155v-52h-96v-69h82zM203 150q-47 0 -74 4v292q61 9 76 9q67 0 96 -37.5t29 -116.5t-29.5 -115t-97.5 -36zM586 451h80l39 -164l38 164h82
q3 -45 13 -297h-60q0 108 -6 213l-41 -168h-55l-41 168h-2q-4 -140 -4 -213h-58q3 156 15 297zM987 150q-60 0 -84 35.5t-24 115.5q0 81 24 117.5t84 36.5t85.5 -37t25.5 -117q0 -79 -25.5 -115t-85.5 -36zM987 403q-29 0 -39 -23.5t-10 -78.5q0 -54 10 -78t39 -24
q30 0 40.5 24t10.5 78q0 55 -10 78.5t-41 23.5zM967 1016q49 0 79.5 -24.5t39 -51t8.5 -53.5q0 -43 -34.5 -72.5t-72.5 -34.5q-213 -23 -340 -147q3 8 9 22t25 53.5t39 75.5t50 80.5t59.5 76t66 53.5t71.5 22zM285 909q39 0 78 -21t69.5 -55t58.5 -74.5t48 -81.5t35 -75
t22 -55l8 -21q-117 148 -319 148q-49 0 -88 30t-39 76q0 53 33.5 91t93.5 38zM643 1214q38 -37 48.5 -102t-2.5 -131t-31.5 -126.5t-35.5 -98.5l-18 -39q20 191 -125 330q-35 35 -42 81.5t24 83.5q23 23 53 34t65 3.5t64 -35.5z" />
    </font>
</defs>
</svg>
