<?xml version="1.0" standalone="no"?>
<!DOCTYPE svg PUBLIC "-//W3C//DTD SVG 1.1//EN" "http://www.w3.org/Graphics/SVG/1.1/DTD/svg11.dtd" >
<svg xmlns="http://www.w3.org/2000/svg" xmlns:xlink="http://www.w3.org/1999/xlink" version="1.1">
<metadata>
Created by FontForge 20170731 at Fri Aug 18 14:47:30 2023
 By Aleksey,,,
Alternate r
</metadata>
<defs>
<font id="FONTSPRINGDEMO-RocGroteskCompressedMediumRegular" horiz-adv-x="1224" >
  <font-face 
    font-family="FSP DEMO - Rc Grtsk Cmprssd Mdm"
    font-weight="500"
    font-stretch="extra-condensed"
    units-per-em="2048"
    panose-1="0 0 6 8 0 0 0 0 0 0"
    ascent="1556"
    descent="-492"
    x-height="1012"
    cap-height="1348"
    bbox="-45 -420 1098 1409"
    underline-thickness="102"
    underline-position="-266"
    unicode-range="U+000D-007E"
  />
<missing-glyph 
d="M207 403q-13 0 -19 -2v-200q4 -2 19 -2q37 0 50 25t13 77q0 54 -13 78t-50 24zM518 330v-49h-82v-78h96v-49h-155v297h155v-52h-96v-69h82zM203 150q-47 0 -74 4v292q61 9 76 9q67 0 96 -37.5t29 -116.5t-29.5 -115t-97.5 -36zM586 451h80l39 -164l38 164h82
q3 -45 13 -297h-60q0 108 -6 213l-41 -168h-55l-41 168h-2q-4 -140 -4 -213h-58q3 156 15 297zM987 150q-60 0 -84 35.5t-24 115.5q0 81 24 117.5t84 36.5t85.5 -37t25.5 -117q0 -79 -25.5 -115t-85.5 -36zM987 403q-29 0 -39 -23.5t-10 -78.5q0 -54 10 -78t39 -24
q30 0 40.5 24t10.5 78q0 55 -10 78.5t-41 23.5zM967 1016q49 0 79.5 -24.5t39 -51t8.5 -53.5q0 -43 -34.5 -72.5t-72.5 -34.5q-213 -23 -340 -147q3 8 9 22t25 53.5t39 75.5t50 80.5t59.5 76t66 53.5t71.5 22zM285 909q39 0 78 -21t69.5 -55t58.5 -74.5t48 -81.5t35 -75
t22 -55l8 -21q-117 148 -319 148q-49 0 -88 30t-39 76q0 53 33.5 91t93.5 38zM643 1214q38 -37 48.5 -102t-2.5 -131t-31.5 -126.5t-35.5 -98.5l-18 -39q20 191 -125 330q-35 35 -42 81.5t24 83.5q23 23 53 34t65 3.5t64 -35.5z" />
    <glyph glyph-name=".notdef" 
d="M207 403q-13 0 -19 -2v-200q4 -2 19 -2q37 0 50 25t13 77q0 54 -13 78t-50 24zM518 330v-49h-82v-78h96v-49h-155v297h155v-52h-96v-69h82zM203 150q-47 0 -74 4v292q61 9 76 9q67 0 96 -37.5t29 -116.5t-29.5 -115t-97.5 -36zM586 451h80l39 -164l38 164h82
q3 -45 13 -297h-60q0 108 -6 213l-41 -168h-55l-41 168h-2q-4 -140 -4 -213h-58q3 156 15 297zM987 150q-60 0 -84 35.5t-24 115.5q0 81 24 117.5t84 36.5t85.5 -37t25.5 -117q0 -79 -25.5 -115t-85.5 -36zM987 403q-29 0 -39 -23.5t-10 -78.5q0 -54 10 -78t39 -24
q30 0 40.5 24t10.5 78q0 55 -10 78.5t-41 23.5zM967 1016q49 0 79.5 -24.5t39 -51t8.5 -53.5q0 -43 -34.5 -72.5t-72.5 -34.5q-213 -23 -340 -147q3 8 9 22t25 53.5t39 75.5t50 80.5t59.5 76t66 53.5t71.5 22zM285 909q39 0 78 -21t69.5 -55t58.5 -74.5t48 -81.5t35 -75
t22 -55l8 -21q-117 148 -319 148q-49 0 -88 30t-39 76q0 53 33.5 91t93.5 38zM643 1214q38 -37 48.5 -102t-2.5 -131t-31.5 -126.5t-35.5 -98.5l-18 -39q20 191 -125 330q-35 35 -42 81.5t24 83.5q23 23 53 34t65 3.5t64 -35.5z" />
    <glyph glyph-name=".null" horiz-adv-x="0" 
 />
    <glyph glyph-name="nonmarkingreturn" horiz-adv-x="682" 
 />
    <glyph glyph-name="NULL" horiz-adv-x="0" 
 />
    <glyph glyph-name="NULL" horiz-adv-x="0" 
 />
    <glyph glyph-name="CR" unicode="&#xd;" horiz-adv-x="294" 
 />
    <glyph glyph-name="space" unicode=" " horiz-adv-x="251" 
 />
    <glyph glyph-name="exclam" unicode="!" 
d="M207 403q-13 0 -19 -2v-200q4 -2 19 -2q37 0 50 25t13 77q0 54 -13 78t-50 24zM518 330v-49h-82v-78h96v-49h-155v297h155v-52h-96v-69h82zM203 150q-47 0 -74 4v292q61 9 76 9q67 0 96 -37.5t29 -116.5t-29.5 -115t-97.5 -36zM586 451h80l39 -164l38 164h82
q3 -45 13 -297h-60q0 108 -6 213l-41 -168h-55l-41 168h-2q-4 -140 -4 -213h-58q3 156 15 297zM987 150q-60 0 -84 35.5t-24 115.5q0 81 24 117.5t84 36.5t85.5 -37t25.5 -117q0 -79 -25.5 -115t-85.5 -36zM987 403q-29 0 -39 -23.5t-10 -78.5q0 -54 10 -78t39 -24
q30 0 40.5 24t10.5 78q0 55 -10 78.5t-41 23.5zM967 1016q49 0 79.5 -24.5t39 -51t8.5 -53.5q0 -43 -34.5 -72.5t-72.5 -34.5q-213 -23 -340 -147q3 8 9 22t25 53.5t39 75.5t50 80.5t59.5 76t66 53.5t71.5 22zM285 909q39 0 78 -21t69.5 -55t58.5 -74.5t48 -81.5t35 -75
t22 -55l8 -21q-117 148 -319 148q-49 0 -88 30t-39 76q0 53 33.5 91t93.5 38zM643 1214q38 -37 48.5 -102t-2.5 -131t-31.5 -126.5t-35.5 -98.5l-18 -39q20 191 -125 330q-35 35 -42 81.5t24 83.5q23 23 53 34t65 3.5t64 -35.5z" />
    <glyph glyph-name="quotedbl" unicode="&#x22;" 
d="M207 403q-13 0 -19 -2v-200q4 -2 19 -2q37 0 50 25t13 77q0 54 -13 78t-50 24zM518 330v-49h-82v-78h96v-49h-155v297h155v-52h-96v-69h82zM203 150q-47 0 -74 4v292q61 9 76 9q67 0 96 -37.5t29 -116.5t-29.5 -115t-97.5 -36zM586 451h80l39 -164l38 164h82
q3 -45 13 -297h-60q0 108 -6 213l-41 -168h-55l-41 168h-2q-4 -140 -4 -213h-58q3 156 15 297zM987 150q-60 0 -84 35.5t-24 115.5q0 81 24 117.5t84 36.5t85.5 -37t25.5 -117q0 -79 -25.5 -115t-85.5 -36zM987 403q-29 0 -39 -23.5t-10 -78.5q0 -54 10 -78t39 -24
q30 0 40.5 24t10.5 78q0 55 -10 78.5t-41 23.5zM967 1016q49 0 79.5 -24.5t39 -51t8.5 -53.5q0 -43 -34.5 -72.5t-72.5 -34.5q-213 -23 -340 -147q3 8 9 22t25 53.5t39 75.5t50 80.5t59.5 76t66 53.5t71.5 22zM285 909q39 0 78 -21t69.5 -55t58.5 -74.5t48 -81.5t35 -75
t22 -55l8 -21q-117 148 -319 148q-49 0 -88 30t-39 76q0 53 33.5 91t93.5 38zM643 1214q38 -37 48.5 -102t-2.5 -131t-31.5 -126.5t-35.5 -98.5l-18 -39q20 191 -125 330q-35 35 -42 81.5t24 83.5q23 23 53 34t65 3.5t64 -35.5z" />
    <glyph glyph-name="numbersign" unicode="#" 
d="M207 403q-13 0 -19 -2v-200q4 -2 19 -2q37 0 50 25t13 77q0 54 -13 78t-50 24zM518 330v-49h-82v-78h96v-49h-155v297h155v-52h-96v-69h82zM203 150q-47 0 -74 4v292q61 9 76 9q67 0 96 -37.5t29 -116.5t-29.5 -115t-97.5 -36zM586 451h80l39 -164l38 164h82
q3 -45 13 -297h-60q0 108 -6 213l-41 -168h-55l-41 168h-2q-4 -140 -4 -213h-58q3 156 15 297zM987 150q-60 0 -84 35.5t-24 115.5q0 81 24 117.5t84 36.5t85.5 -37t25.5 -117q0 -79 -25.5 -115t-85.5 -36zM987 403q-29 0 -39 -23.5t-10 -78.5q0 -54 10 -78t39 -24
q30 0 40.5 24t10.5 78q0 55 -10 78.5t-41 23.5zM967 1016q49 0 79.5 -24.5t39 -51t8.5 -53.5q0 -43 -34.5 -72.5t-72.5 -34.5q-213 -23 -340 -147q3 8 9 22t25 53.5t39 75.5t50 80.5t59.5 76t66 53.5t71.5 22zM285 909q39 0 78 -21t69.5 -55t58.5 -74.5t48 -81.5t35 -75
t22 -55l8 -21q-117 148 -319 148q-49 0 -88 30t-39 76q0 53 33.5 91t93.5 38zM643 1214q38 -37 48.5 -102t-2.5 -131t-31.5 -126.5t-35.5 -98.5l-18 -39q20 191 -125 330q-35 35 -42 81.5t24 83.5q23 23 53 34t65 3.5t64 -35.5z" />
    <glyph glyph-name="dollar" unicode="$" 
d="M207 403q-13 0 -19 -2v-200q4 -2 19 -2q37 0 50 25t13 77q0 54 -13 78t-50 24zM518 330v-49h-82v-78h96v-49h-155v297h155v-52h-96v-69h82zM203 150q-47 0 -74 4v292q61 9 76 9q67 0 96 -37.5t29 -116.5t-29.5 -115t-97.5 -36zM586 451h80l39 -164l38 164h82
q3 -45 13 -297h-60q0 108 -6 213l-41 -168h-55l-41 168h-2q-4 -140 -4 -213h-58q3 156 15 297zM987 150q-60 0 -84 35.5t-24 115.5q0 81 24 117.5t84 36.5t85.5 -37t25.5 -117q0 -79 -25.5 -115t-85.5 -36zM987 403q-29 0 -39 -23.5t-10 -78.5q0 -54 10 -78t39 -24
q30 0 40.5 24t10.5 78q0 55 -10 78.5t-41 23.5zM967 1016q49 0 79.5 -24.5t39 -51t8.5 -53.5q0 -43 -34.5 -72.5t-72.5 -34.5q-213 -23 -340 -147q3 8 9 22t25 53.5t39 75.5t50 80.5t59.5 76t66 53.5t71.5 22zM285 909q39 0 78 -21t69.5 -55t58.5 -74.5t48 -81.5t35 -75
t22 -55l8 -21q-117 148 -319 148q-49 0 -88 30t-39 76q0 53 33.5 91t93.5 38zM643 1214q38 -37 48.5 -102t-2.5 -131t-31.5 -126.5t-35.5 -98.5l-18 -39q20 191 -125 330q-35 35 -42 81.5t24 83.5q23 23 53 34t65 3.5t64 -35.5z" />
    <glyph glyph-name="percent" unicode="%" 
d="M207 403q-13 0 -19 -2v-200q4 -2 19 -2q37 0 50 25t13 77q0 54 -13 78t-50 24zM518 330v-49h-82v-78h96v-49h-155v297h155v-52h-96v-69h82zM203 150q-47 0 -74 4v292q61 9 76 9q67 0 96 -37.5t29 -116.5t-29.5 -115t-97.5 -36zM586 451h80l39 -164l38 164h82
q3 -45 13 -297h-60q0 108 -6 213l-41 -168h-55l-41 168h-2q-4 -140 -4 -213h-58q3 156 15 297zM987 150q-60 0 -84 35.5t-24 115.5q0 81 24 117.5t84 36.5t85.5 -37t25.5 -117q0 -79 -25.5 -115t-85.5 -36zM987 403q-29 0 -39 -23.5t-10 -78.5q0 -54 10 -78t39 -24
q30 0 40.5 24t10.5 78q0 55 -10 78.5t-41 23.5zM967 1016q49 0 79.5 -24.5t39 -51t8.5 -53.5q0 -43 -34.5 -72.5t-72.5 -34.5q-213 -23 -340 -147q3 8 9 22t25 53.5t39 75.5t50 80.5t59.5 76t66 53.5t71.5 22zM285 909q39 0 78 -21t69.5 -55t58.5 -74.5t48 -81.5t35 -75
t22 -55l8 -21q-117 148 -319 148q-49 0 -88 30t-39 76q0 53 33.5 91t93.5 38zM643 1214q38 -37 48.5 -102t-2.5 -131t-31.5 -126.5t-35.5 -98.5l-18 -39q20 191 -125 330q-35 35 -42 81.5t24 83.5q23 23 53 34t65 3.5t64 -35.5z" />
    <glyph glyph-name="ampersand" unicode="&#x26;" 
d="M207 403q-13 0 -19 -2v-200q4 -2 19 -2q37 0 50 25t13 77q0 54 -13 78t-50 24zM518 330v-49h-82v-78h96v-49h-155v297h155v-52h-96v-69h82zM203 150q-47 0 -74 4v292q61 9 76 9q67 0 96 -37.5t29 -116.5t-29.5 -115t-97.5 -36zM586 451h80l39 -164l38 164h82
q3 -45 13 -297h-60q0 108 -6 213l-41 -168h-55l-41 168h-2q-4 -140 -4 -213h-58q3 156 15 297zM987 150q-60 0 -84 35.5t-24 115.5q0 81 24 117.5t84 36.5t85.5 -37t25.5 -117q0 -79 -25.5 -115t-85.5 -36zM987 403q-29 0 -39 -23.5t-10 -78.5q0 -54 10 -78t39 -24
q30 0 40.5 24t10.5 78q0 55 -10 78.5t-41 23.5zM967 1016q49 0 79.5 -24.5t39 -51t8.5 -53.5q0 -43 -34.5 -72.5t-72.5 -34.5q-213 -23 -340 -147q3 8 9 22t25 53.5t39 75.5t50 80.5t59.5 76t66 53.5t71.5 22zM285 909q39 0 78 -21t69.5 -55t58.5 -74.5t48 -81.5t35 -75
t22 -55l8 -21q-117 148 -319 148q-49 0 -88 30t-39 76q0 53 33.5 91t93.5 38zM643 1214q38 -37 48.5 -102t-2.5 -131t-31.5 -126.5t-35.5 -98.5l-18 -39q20 191 -125 330q-35 35 -42 81.5t24 83.5q23 23 53 34t65 3.5t64 -35.5z" />
    <glyph glyph-name="quotesingle" unicode="'" 
d="M207 403q-13 0 -19 -2v-200q4 -2 19 -2q37 0 50 25t13 77q0 54 -13 78t-50 24zM518 330v-49h-82v-78h96v-49h-155v297h155v-52h-96v-69h82zM203 150q-47 0 -74 4v292q61 9 76 9q67 0 96 -37.5t29 -116.5t-29.5 -115t-97.5 -36zM586 451h80l39 -164l38 164h82
q3 -45 13 -297h-60q0 108 -6 213l-41 -168h-55l-41 168h-2q-4 -140 -4 -213h-58q3 156 15 297zM987 150q-60 0 -84 35.5t-24 115.5q0 81 24 117.5t84 36.5t85.5 -37t25.5 -117q0 -79 -25.5 -115t-85.5 -36zM987 403q-29 0 -39 -23.5t-10 -78.5q0 -54 10 -78t39 -24
q30 0 40.5 24t10.5 78q0 55 -10 78.5t-41 23.5zM967 1016q49 0 79.5 -24.5t39 -51t8.5 -53.5q0 -43 -34.5 -72.5t-72.5 -34.5q-213 -23 -340 -147q3 8 9 22t25 53.5t39 75.5t50 80.5t59.5 76t66 53.5t71.5 22zM285 909q39 0 78 -21t69.5 -55t58.5 -74.5t48 -81.5t35 -75
t22 -55l8 -21q-117 148 -319 148q-49 0 -88 30t-39 76q0 53 33.5 91t93.5 38zM643 1214q38 -37 48.5 -102t-2.5 -131t-31.5 -126.5t-35.5 -98.5l-18 -39q20 191 -125 330q-35 35 -42 81.5t24 83.5q23 23 53 34t65 3.5t64 -35.5z" />
    <glyph glyph-name="parenleft" unicode="(" 
d="M207 403q-13 0 -19 -2v-200q4 -2 19 -2q37 0 50 25t13 77q0 54 -13 78t-50 24zM518 330v-49h-82v-78h96v-49h-155v297h155v-52h-96v-69h82zM203 150q-47 0 -74 4v292q61 9 76 9q67 0 96 -37.5t29 -116.5t-29.5 -115t-97.5 -36zM586 451h80l39 -164l38 164h82
q3 -45 13 -297h-60q0 108 -6 213l-41 -168h-55l-41 168h-2q-4 -140 -4 -213h-58q3 156 15 297zM987 150q-60 0 -84 35.5t-24 115.5q0 81 24 117.5t84 36.5t85.5 -37t25.5 -117q0 -79 -25.5 -115t-85.5 -36zM987 403q-29 0 -39 -23.5t-10 -78.5q0 -54 10 -78t39 -24
q30 0 40.5 24t10.5 78q0 55 -10 78.5t-41 23.5zM967 1016q49 0 79.5 -24.5t39 -51t8.5 -53.5q0 -43 -34.5 -72.5t-72.5 -34.5q-213 -23 -340 -147q3 8 9 22t25 53.5t39 75.5t50 80.5t59.5 76t66 53.5t71.5 22zM285 909q39 0 78 -21t69.5 -55t58.5 -74.5t48 -81.5t35 -75
t22 -55l8 -21q-117 148 -319 148q-49 0 -88 30t-39 76q0 53 33.5 91t93.5 38zM643 1214q38 -37 48.5 -102t-2.5 -131t-31.5 -126.5t-35.5 -98.5l-18 -39q20 191 -125 330q-35 35 -42 81.5t24 83.5q23 23 53 34t65 3.5t64 -35.5z" />
    <glyph glyph-name="parenright" unicode=")" 
d="M207 403q-13 0 -19 -2v-200q4 -2 19 -2q37 0 50 25t13 77q0 54 -13 78t-50 24zM518 330v-49h-82v-78h96v-49h-155v297h155v-52h-96v-69h82zM203 150q-47 0 -74 4v292q61 9 76 9q67 0 96 -37.5t29 -116.5t-29.5 -115t-97.5 -36zM586 451h80l39 -164l38 164h82
q3 -45 13 -297h-60q0 108 -6 213l-41 -168h-55l-41 168h-2q-4 -140 -4 -213h-58q3 156 15 297zM987 150q-60 0 -84 35.5t-24 115.5q0 81 24 117.5t84 36.5t85.5 -37t25.5 -117q0 -79 -25.5 -115t-85.5 -36zM987 403q-29 0 -39 -23.5t-10 -78.5q0 -54 10 -78t39 -24
q30 0 40.5 24t10.5 78q0 55 -10 78.5t-41 23.5zM967 1016q49 0 79.5 -24.5t39 -51t8.5 -53.5q0 -43 -34.5 -72.5t-72.5 -34.5q-213 -23 -340 -147q3 8 9 22t25 53.5t39 75.5t50 80.5t59.5 76t66 53.5t71.5 22zM285 909q39 0 78 -21t69.5 -55t58.5 -74.5t48 -81.5t35 -75
t22 -55l8 -21q-117 148 -319 148q-49 0 -88 30t-39 76q0 53 33.5 91t93.5 38zM643 1214q38 -37 48.5 -102t-2.5 -131t-31.5 -126.5t-35.5 -98.5l-18 -39q20 191 -125 330q-35 35 -42 81.5t24 83.5q23 23 53 34t65 3.5t64 -35.5z" />
    <glyph glyph-name="asterisk" unicode="*" 
d="M207 403q-13 0 -19 -2v-200q4 -2 19 -2q37 0 50 25t13 77q0 54 -13 78t-50 24zM518 330v-49h-82v-78h96v-49h-155v297h155v-52h-96v-69h82zM203 150q-47 0 -74 4v292q61 9 76 9q67 0 96 -37.5t29 -116.5t-29.5 -115t-97.5 -36zM586 451h80l39 -164l38 164h82
q3 -45 13 -297h-60q0 108 -6 213l-41 -168h-55l-41 168h-2q-4 -140 -4 -213h-58q3 156 15 297zM987 150q-60 0 -84 35.5t-24 115.5q0 81 24 117.5t84 36.5t85.5 -37t25.5 -117q0 -79 -25.5 -115t-85.5 -36zM987 403q-29 0 -39 -23.5t-10 -78.5q0 -54 10 -78t39 -24
q30 0 40.5 24t10.5 78q0 55 -10 78.5t-41 23.5zM967 1016q49 0 79.5 -24.5t39 -51t8.5 -53.5q0 -43 -34.5 -72.5t-72.5 -34.5q-213 -23 -340 -147q3 8 9 22t25 53.5t39 75.5t50 80.5t59.5 76t66 53.5t71.5 22zM285 909q39 0 78 -21t69.5 -55t58.5 -74.5t48 -81.5t35 -75
t22 -55l8 -21q-117 148 -319 148q-49 0 -88 30t-39 76q0 53 33.5 91t93.5 38zM643 1214q38 -37 48.5 -102t-2.5 -131t-31.5 -126.5t-35.5 -98.5l-18 -39q20 191 -125 330q-35 35 -42 81.5t24 83.5q23 23 53 34t65 3.5t64 -35.5z" />
    <glyph glyph-name="plus" unicode="+" 
d="M207 403q-13 0 -19 -2v-200q4 -2 19 -2q37 0 50 25t13 77q0 54 -13 78t-50 24zM518 330v-49h-82v-78h96v-49h-155v297h155v-52h-96v-69h82zM203 150q-47 0 -74 4v292q61 9 76 9q67 0 96 -37.5t29 -116.5t-29.5 -115t-97.5 -36zM586 451h80l39 -164l38 164h82
q3 -45 13 -297h-60q0 108 -6 213l-41 -168h-55l-41 168h-2q-4 -140 -4 -213h-58q3 156 15 297zM987 150q-60 0 -84 35.5t-24 115.5q0 81 24 117.5t84 36.5t85.5 -37t25.5 -117q0 -79 -25.5 -115t-85.5 -36zM987 403q-29 0 -39 -23.5t-10 -78.5q0 -54 10 -78t39 -24
q30 0 40.5 24t10.5 78q0 55 -10 78.5t-41 23.5zM967 1016q49 0 79.5 -24.5t39 -51t8.5 -53.5q0 -43 -34.5 -72.5t-72.5 -34.5q-213 -23 -340 -147q3 8 9 22t25 53.5t39 75.5t50 80.5t59.5 76t66 53.5t71.5 22zM285 909q39 0 78 -21t69.5 -55t58.5 -74.5t48 -81.5t35 -75
t22 -55l8 -21q-117 148 -319 148q-49 0 -88 30t-39 76q0 53 33.5 91t93.5 38zM643 1214q38 -37 48.5 -102t-2.5 -131t-31.5 -126.5t-35.5 -98.5l-18 -39q20 191 -125 330q-35 35 -42 81.5t24 83.5q23 23 53 34t65 3.5t64 -35.5z" />
    <glyph glyph-name="comma" unicode="," horiz-adv-x="348" 
d="M53 -225v96q41 6 60.5 34t19.5 89v6h-65v248h168v-178q0 -104 -22 -167.5t-60 -91.5t-101 -36z" />
    <glyph glyph-name="hyphen" unicode="-" 
d="M207 403q-13 0 -19 -2v-200q4 -2 19 -2q37 0 50 25t13 77q0 54 -13 78t-50 24zM518 330v-49h-82v-78h96v-49h-155v297h155v-52h-96v-69h82zM203 150q-47 0 -74 4v292q61 9 76 9q67 0 96 -37.5t29 -116.5t-29.5 -115t-97.5 -36zM586 451h80l39 -164l38 164h82
q3 -45 13 -297h-60q0 108 -6 213l-41 -168h-55l-41 168h-2q-4 -140 -4 -213h-58q3 156 15 297zM987 150q-60 0 -84 35.5t-24 115.5q0 81 24 117.5t84 36.5t85.5 -37t25.5 -117q0 -79 -25.5 -115t-85.5 -36zM987 403q-29 0 -39 -23.5t-10 -78.5q0 -54 10 -78t39 -24
q30 0 40.5 24t10.5 78q0 55 -10 78.5t-41 23.5zM967 1016q49 0 79.5 -24.5t39 -51t8.5 -53.5q0 -43 -34.5 -72.5t-72.5 -34.5q-213 -23 -340 -147q3 8 9 22t25 53.5t39 75.5t50 80.5t59.5 76t66 53.5t71.5 22zM285 909q39 0 78 -21t69.5 -55t58.5 -74.5t48 -81.5t35 -75
t22 -55l8 -21q-117 148 -319 148q-49 0 -88 30t-39 76q0 53 33.5 91t93.5 38zM643 1214q38 -37 48.5 -102t-2.5 -131t-31.5 -126.5t-35.5 -98.5l-18 -39q20 191 -125 330q-35 35 -42 81.5t24 83.5q23 23 53 34t65 3.5t64 -35.5z" />
    <glyph glyph-name="period" unicode="." horiz-adv-x="348" 
d="M88 0v248h170v-248h-170z" />
    <glyph glyph-name="slash" unicode="/" 
d="M207 403q-13 0 -19 -2v-200q4 -2 19 -2q37 0 50 25t13 77q0 54 -13 78t-50 24zM518 330v-49h-82v-78h96v-49h-155v297h155v-52h-96v-69h82zM203 150q-47 0 -74 4v292q61 9 76 9q67 0 96 -37.5t29 -116.5t-29.5 -115t-97.5 -36zM586 451h80l39 -164l38 164h82
q3 -45 13 -297h-60q0 108 -6 213l-41 -168h-55l-41 168h-2q-4 -140 -4 -213h-58q3 156 15 297zM987 150q-60 0 -84 35.5t-24 115.5q0 81 24 117.5t84 36.5t85.5 -37t25.5 -117q0 -79 -25.5 -115t-85.5 -36zM987 403q-29 0 -39 -23.5t-10 -78.5q0 -54 10 -78t39 -24
q30 0 40.5 24t10.5 78q0 55 -10 78.5t-41 23.5zM967 1016q49 0 79.5 -24.5t39 -51t8.5 -53.5q0 -43 -34.5 -72.5t-72.5 -34.5q-213 -23 -340 -147q3 8 9 22t25 53.5t39 75.5t50 80.5t59.5 76t66 53.5t71.5 22zM285 909q39 0 78 -21t69.5 -55t58.5 -74.5t48 -81.5t35 -75
t22 -55l8 -21q-117 148 -319 148q-49 0 -88 30t-39 76q0 53 33.5 91t93.5 38zM643 1214q38 -37 48.5 -102t-2.5 -131t-31.5 -126.5t-35.5 -98.5l-18 -39q20 191 -125 330q-35 35 -42 81.5t24 83.5q23 23 53 34t65 3.5t64 -35.5z" />
    <glyph glyph-name="zero" unicode="0" horiz-adv-x="565" 
d="M283 -14q-68 0 -109 27t-70 104.5t-40 211t-11 351.5q0 283 25 432.5t71.5 199.5t133.5 50q52 0 87.5 -16t64.5 -58.5t45.5 -120t25 -196.5t8.5 -291q0 -287 -23.5 -437t-70.5 -203.5t-137 -53.5zM283 164q19 0 29 14.5t17.5 69t10 153.5t2.5 277q0 172 -3 272.5
t-11 152.5t-17.5 66.5t-27.5 14.5q-19 0 -29 -14.5t-18 -66.5t-10.5 -152t-2.5 -273q0 -177 2.5 -277t10 -154t18 -68.5t29.5 -14.5z" />
    <glyph glyph-name="one" unicode="1" horiz-adv-x="565" 
d="M25 0v178h186v690h-160v146l88 4q31 1 48 8t30 24.5t18.5 59t8 97t2.5 153.5h145v-1182h152v-178h-518z" />
    <glyph glyph-name="two" unicode="2" horiz-adv-x="565" 
d="M63 0q0 221 18 305t93 197q108 150 133 219t25 217q0 149 -12 199.5t-46 50.5q-17 0 -27 -10t-16.5 -42t-9 -87t-2.5 -148q0 -108 4 -174h-155q-7 109 -7 174q0 182 20.5 279.5t68.5 139.5t137 42q121 0 173 -89t52 -315q0 -165 -35.5 -265t-124.5 -230
q-67 -92 -82.5 -140t-15.5 -145h258v-178h-449z" />
    <glyph glyph-name="three" unicode="3" horiz-adv-x="565" 
d="M281 -14q-129 0 -177.5 78.5t-48.5 285.5q0 90 2 131h158q-2 -47 -2 -98q0 -95 6 -143t17.5 -63t33.5 -15q36 0 49 58t13 212q0 107 -15 141.5t-59 34.5h-78v133h74q28 0 40.5 16.5t17.5 60.5t5 140q0 134 -10 181t-37 47q-20 0 -30 -16t-15.5 -64.5t-5.5 -144.5
q0 -55 6 -115h-157q-5 78 -5 149q0 206 50 286.5t163 80.5q112 0 162.5 -79.5t50.5 -278.5q0 -152 -22.5 -216t-83.5 -83v-7q72 -20 100.5 -86.5t28.5 -208.5q0 -221 -50.5 -319t-180.5 -98z" />
    <glyph glyph-name="four" unicode="4" 
d="M207 403q-13 0 -19 -2v-200q4 -2 19 -2q37 0 50 25t13 77q0 54 -13 78t-50 24zM518 330v-49h-82v-78h96v-49h-155v297h155v-52h-96v-69h82zM203 150q-47 0 -74 4v292q61 9 76 9q67 0 96 -37.5t29 -116.5t-29.5 -115t-97.5 -36zM586 451h80l39 -164l38 164h82
q3 -45 13 -297h-60q0 108 -6 213l-41 -168h-55l-41 168h-2q-4 -140 -4 -213h-58q3 156 15 297zM987 150q-60 0 -84 35.5t-24 115.5q0 81 24 117.5t84 36.5t85.5 -37t25.5 -117q0 -79 -25.5 -115t-85.5 -36zM987 403q-29 0 -39 -23.5t-10 -78.5q0 -54 10 -78t39 -24
q30 0 40.5 24t10.5 78q0 55 -10 78.5t-41 23.5zM967 1016q49 0 79.5 -24.5t39 -51t8.5 -53.5q0 -43 -34.5 -72.5t-72.5 -34.5q-213 -23 -340 -147q3 8 9 22t25 53.5t39 75.5t50 80.5t59.5 76t66 53.5t71.5 22zM285 909q39 0 78 -21t69.5 -55t58.5 -74.5t48 -81.5t35 -75
t22 -55l8 -21q-117 148 -319 148q-49 0 -88 30t-39 76q0 53 33.5 91t93.5 38zM643 1214q38 -37 48.5 -102t-2.5 -131t-31.5 -126.5t-35.5 -98.5l-18 -39q20 191 -125 330q-35 35 -42 81.5t24 83.5q23 23 53 34t65 3.5t64 -35.5z" />
    <glyph glyph-name="five" unicode="5" horiz-adv-x="565" 
d="M279 -14q-118 0 -170 81t-52 257q0 50 4 90h156q-2 -25 -2 -74q0 -100 12.5 -138t40.5 -38q21 0 33.5 17t21.5 83.5t9 190.5q0 92 -1.5 141t-7 83.5t-15.5 45t-27 10.5t-29.5 -17t-19.5 -49t-10.5 -57.5t-6.5 -62.5l-152 14l31 785h400v-181h-252l-25 -428h4
q15 73 46.5 107.5t84.5 34.5q61 0 94 -34.5t49.5 -126t16.5 -263.5q0 -181 -27.5 -286t-76.5 -145t-129 -40z" />
    <glyph glyph-name="six" unicode="6" horiz-adv-x="565" 
d="M293 -14q-61 0 -102.5 22.5t-69 68t-42 129t-20.5 188.5t-6 265q0 286 26 439t76.5 208.5t143.5 55.5q116 0 155.5 -83t39.5 -304q0 -45 -5 -107h-149q2 41 2 97q0 98 -4 144.5t-12.5 60.5t-26.5 14q-26 0 -38.5 -29t-20 -130t-7.5 -304q0 -9 -2 -51t-2 -45h4
q11 73 41.5 110t92.5 37q87 0 116 -77.5t29 -274.5q0 -241 -45.5 -337.5t-173.5 -96.5zM299 154q21 0 31 19t15 75t5 170q0 88 -4.5 131.5t-14 59.5t-28.5 16q-33 0 -51.5 -56.5t-18.5 -160.5q2 -105 9.5 -160t20 -74.5t36.5 -19.5z" />
    <glyph glyph-name="seven" unicode="7" horiz-adv-x="565" 
d="M96 0q71 632 283 1161v2h-354v185h524v-174q-97 -261 -157 -539t-93 -635h-203z" />
    <glyph glyph-name="eight" unicode="8" horiz-adv-x="565" 
d="M283 -14q-132 0 -183 89t-51 308q0 148 23.5 220.5t79.5 98.5v3q-46 23 -66 90t-20 202q0 205 48 285t169 80t169 -80t48 -285q0 -136 -20 -202.5t-68 -89.5v-3q57 -26 80.5 -98t23.5 -221q0 -220 -50.5 -308.5t-182.5 -88.5zM283 758q20 0 31 17t16.5 64t5.5 136
q0 93 -5.5 141t-16 65t-31.5 17q-20 0 -31 -16.5t-17 -66t-6 -140.5q0 -89 5.5 -136t16.5 -64t32 -17zM283 150q23 0 35 17.5t18 70t6 155.5q0 133 -12.5 182.5t-46.5 49.5t-47 -49.5t-13 -182.5q0 -101 7 -155t19 -71t34 -17z" />
    <glyph glyph-name="nine" unicode="9" horiz-adv-x="565" 
d="M281 -14q-118 0 -168 81.5t-50 278.5q0 50 3 94h153q-2 -37 -2 -78q0 -116 12.5 -158t42.5 -42q14 0 23 6t16 26.5t11 49t6.5 84.5t3 122t0.5 171q0 4 1 35t1 46h-4q-12 -85 -40.5 -123t-82.5 -38q-92 0 -123 82.5t-31 291.5q0 170 25 269t72.5 138.5t125.5 39.5
q59 0 99 -21t67.5 -65.5t42.5 -126.5t21 -190t6 -271q0 -216 -12 -352.5t-41.5 -214.5t-70.5 -106.5t-107 -28.5zM260 688q33 0 52.5 72.5t19.5 189.5q-3 100 -11 154t-19.5 72t-31.5 18t-31 -19.5t-17.5 -83t-6.5 -182.5q0 -134 8 -177.5t37 -43.5z" />
    <glyph glyph-name="colon" unicode=":" horiz-adv-x="348" 
d="M88 702v248h170v-248h-170zM88 0v248h170v-248h-170z" />
    <glyph glyph-name="semicolon" unicode=";" horiz-adv-x="348" 
d="M88 702v248h170v-248h-170zM74 -225v96q41 6 60.5 34t19.5 89v6h-66v248h170v-178q0 -153 -44.5 -217.5t-139.5 -77.5z" />
    <glyph glyph-name="less" unicode="&#x3c;" 
d="M207 403q-13 0 -19 -2v-200q4 -2 19 -2q37 0 50 25t13 77q0 54 -13 78t-50 24zM518 330v-49h-82v-78h96v-49h-155v297h155v-52h-96v-69h82zM203 150q-47 0 -74 4v292q61 9 76 9q67 0 96 -37.5t29 -116.5t-29.5 -115t-97.5 -36zM586 451h80l39 -164l38 164h82
q3 -45 13 -297h-60q0 108 -6 213l-41 -168h-55l-41 168h-2q-4 -140 -4 -213h-58q3 156 15 297zM987 150q-60 0 -84 35.5t-24 115.5q0 81 24 117.5t84 36.5t85.5 -37t25.5 -117q0 -79 -25.5 -115t-85.5 -36zM987 403q-29 0 -39 -23.5t-10 -78.5q0 -54 10 -78t39 -24
q30 0 40.5 24t10.5 78q0 55 -10 78.5t-41 23.5zM967 1016q49 0 79.5 -24.5t39 -51t8.5 -53.5q0 -43 -34.5 -72.5t-72.5 -34.5q-213 -23 -340 -147q3 8 9 22t25 53.5t39 75.5t50 80.5t59.5 76t66 53.5t71.5 22zM285 909q39 0 78 -21t69.5 -55t58.5 -74.5t48 -81.5t35 -75
t22 -55l8 -21q-117 148 -319 148q-49 0 -88 30t-39 76q0 53 33.5 91t93.5 38zM643 1214q38 -37 48.5 -102t-2.5 -131t-31.5 -126.5t-35.5 -98.5l-18 -39q20 191 -125 330q-35 35 -42 81.5t24 83.5q23 23 53 34t65 3.5t64 -35.5z" />
    <glyph glyph-name="equal" unicode="=" 
d="M207 403q-13 0 -19 -2v-200q4 -2 19 -2q37 0 50 25t13 77q0 54 -13 78t-50 24zM518 330v-49h-82v-78h96v-49h-155v297h155v-52h-96v-69h82zM203 150q-47 0 -74 4v292q61 9 76 9q67 0 96 -37.5t29 -116.5t-29.5 -115t-97.5 -36zM586 451h80l39 -164l38 164h82
q3 -45 13 -297h-60q0 108 -6 213l-41 -168h-55l-41 168h-2q-4 -140 -4 -213h-58q3 156 15 297zM987 150q-60 0 -84 35.5t-24 115.5q0 81 24 117.5t84 36.5t85.5 -37t25.5 -117q0 -79 -25.5 -115t-85.5 -36zM987 403q-29 0 -39 -23.5t-10 -78.5q0 -54 10 -78t39 -24
q30 0 40.5 24t10.5 78q0 55 -10 78.5t-41 23.5zM967 1016q49 0 79.5 -24.5t39 -51t8.5 -53.5q0 -43 -34.5 -72.5t-72.5 -34.5q-213 -23 -340 -147q3 8 9 22t25 53.5t39 75.5t50 80.5t59.5 76t66 53.5t71.5 22zM285 909q39 0 78 -21t69.5 -55t58.5 -74.5t48 -81.5t35 -75
t22 -55l8 -21q-117 148 -319 148q-49 0 -88 30t-39 76q0 53 33.5 91t93.5 38zM643 1214q38 -37 48.5 -102t-2.5 -131t-31.5 -126.5t-35.5 -98.5l-18 -39q20 191 -125 330q-35 35 -42 81.5t24 83.5q23 23 53 34t65 3.5t64 -35.5z" />
    <glyph glyph-name="greater" unicode="&#x3e;" 
d="M207 403q-13 0 -19 -2v-200q4 -2 19 -2q37 0 50 25t13 77q0 54 -13 78t-50 24zM518 330v-49h-82v-78h96v-49h-155v297h155v-52h-96v-69h82zM203 150q-47 0 -74 4v292q61 9 76 9q67 0 96 -37.5t29 -116.5t-29.5 -115t-97.5 -36zM586 451h80l39 -164l38 164h82
q3 -45 13 -297h-60q0 108 -6 213l-41 -168h-55l-41 168h-2q-4 -140 -4 -213h-58q3 156 15 297zM987 150q-60 0 -84 35.5t-24 115.5q0 81 24 117.5t84 36.5t85.5 -37t25.5 -117q0 -79 -25.5 -115t-85.5 -36zM987 403q-29 0 -39 -23.5t-10 -78.5q0 -54 10 -78t39 -24
q30 0 40.5 24t10.5 78q0 55 -10 78.5t-41 23.5zM967 1016q49 0 79.5 -24.5t39 -51t8.5 -53.5q0 -43 -34.5 -72.5t-72.5 -34.5q-213 -23 -340 -147q3 8 9 22t25 53.5t39 75.5t50 80.5t59.5 76t66 53.5t71.5 22zM285 909q39 0 78 -21t69.5 -55t58.5 -74.5t48 -81.5t35 -75
t22 -55l8 -21q-117 148 -319 148q-49 0 -88 30t-39 76q0 53 33.5 91t93.5 38zM643 1214q38 -37 48.5 -102t-2.5 -131t-31.5 -126.5t-35.5 -98.5l-18 -39q20 191 -125 330q-35 35 -42 81.5t24 83.5q23 23 53 34t65 3.5t64 -35.5z" />
    <glyph glyph-name="question" unicode="?" horiz-adv-x="548" 
d="M119 367v356h121q8 -66 19 -94.5t34 -28.5q18 0 28 22t14.5 83.5t4.5 181.5q0 109 -2 172.5t-8 102t-15.5 51t-25.5 12.5q-19 0 -30.5 -18t-18.5 -77t-7 -167q0 -37 3 -89h-150q-6 40 -6 113q0 94 9 162t25.5 111t43 69t57 35.5t72.5 9.5q77 0 120 -39.5t65 -144.5
t22 -295q0 -124 -11 -211t-31.5 -135t-47 -69t-62.5 -21q-48 0 -70.5 23.5t-35.5 66.5h-3l3 -182h-117zM96 0v248h170v-248h-170z" />
    <glyph glyph-name="at" unicode="@" 
d="M207 403q-13 0 -19 -2v-200q4 -2 19 -2q37 0 50 25t13 77q0 54 -13 78t-50 24zM518 330v-49h-82v-78h96v-49h-155v297h155v-52h-96v-69h82zM203 150q-47 0 -74 4v292q61 9 76 9q67 0 96 -37.5t29 -116.5t-29.5 -115t-97.5 -36zM586 451h80l39 -164l38 164h82
q3 -45 13 -297h-60q0 108 -6 213l-41 -168h-55l-41 168h-2q-4 -140 -4 -213h-58q3 156 15 297zM987 150q-60 0 -84 35.5t-24 115.5q0 81 24 117.5t84 36.5t85.5 -37t25.5 -117q0 -79 -25.5 -115t-85.5 -36zM987 403q-29 0 -39 -23.5t-10 -78.5q0 -54 10 -78t39 -24
q30 0 40.5 24t10.5 78q0 55 -10 78.5t-41 23.5zM967 1016q49 0 79.5 -24.5t39 -51t8.5 -53.5q0 -43 -34.5 -72.5t-72.5 -34.5q-213 -23 -340 -147q3 8 9 22t25 53.5t39 75.5t50 80.5t59.5 76t66 53.5t71.5 22zM285 909q39 0 78 -21t69.5 -55t58.5 -74.5t48 -81.5t35 -75
t22 -55l8 -21q-117 148 -319 148q-49 0 -88 30t-39 76q0 53 33.5 91t93.5 38zM643 1214q38 -37 48.5 -102t-2.5 -131t-31.5 -126.5t-35.5 -98.5l-18 -39q20 191 -125 330q-35 35 -42 81.5t24 83.5q23 23 53 34t65 3.5t64 -35.5z" />
    <glyph glyph-name="A" unicode="A" horiz-adv-x="641" 
d="M387 0l-20 301h-121l-21 -301h-196l155 1348h273l157 -1348h-227zM256 440h102l-47 711h-8z" />
    <glyph glyph-name="B" unicode="B" horiz-adv-x="604" 
d="M59 0v1348h226q78 0 128.5 -21.5t76.5 -69t35.5 -105.5t9.5 -148q0 -137 -21 -204.5t-82 -90.5v-2q71 -25 97 -101t26 -219q0 -226 -49.5 -306.5t-198.5 -80.5h-248zM252 758h29q48 0 63.5 39.5t15.5 163.5q0 136 -12 179.5t-61 43.5h-35v-426zM252 164h47q31 0 44.5 16
t19.5 67t6 165q0 127 -14.5 170t-65.5 43h-37v-461z" />
    <glyph glyph-name="C" unicode="C" horiz-adv-x="575" 
d="M297 -14q-61 0 -100 16.5t-69.5 58t-46 121.5t-23 197t-7.5 295q0 176 10 297.5t27.5 198.5t49.5 119.5t69.5 57.5t93.5 15q135 0 180 -95.5t45 -353.5q0 -59 -6 -188h-164q4 86 4 182q0 95 -1.5 143.5t-7.5 81.5t-15 41.5t-27 8.5q-20 0 -31 -14t-19.5 -66t-11.5 -152.5
t-3 -275.5q0 -185 2 -277.5t9.5 -149t18 -69t33.5 -12.5q17 0 26.5 9.5t16 39.5t8.5 80t2 137q0 61 -4 127h166q4 -66 4 -129q0 -171 -22 -266.5t-70.5 -136.5t-136.5 -41z" />
    <glyph glyph-name="D" unicode="D" horiz-adv-x="620" 
d="M59 0v1348h209q76 0 125 -17.5t85 -58.5t55 -121t27.5 -191t8.5 -282q0 -153 -5 -258t-19 -183t-33.5 -122.5t-54.5 -71t-74.5 -35t-101.5 -8.5h-222zM252 180h37q33 0 48 10t25.5 67t12.5 145t2 276q0 116 -1 189.5t-5.5 132t-10.5 88.5t-18 49.5t-25.5 24.5t-35.5 5
h-29v-987z" />
    <glyph glyph-name="E" unicode="E" horiz-adv-x="450" 
d="M59 0v1348h369v-181h-176v-422h147v-135h-147v-430h188v-180h-381z" />
    <glyph glyph-name="F" unicode="F" horiz-adv-x="438" 
d="M59 0v1348h367v-181h-174v-450h145v-146h-145v-571h-193z" />
    <glyph glyph-name="G" unicode="G" horiz-adv-x="587" 
d="M252 -14q-75 0 -115.5 47t-63 195t-22.5 429q0 221 14 359.5t47.5 215t78.5 103.5t118 27q131 0 179.5 -94.5t48.5 -345.5q0 -42 -7 -172h-163q0 12 1 69t1 92q0 87 -2.5 138t-8.5 81.5t-16 41t-27 10.5q-22 0 -34 -15.5t-21 -71t-12.5 -159.5t-3.5 -283q0 -165 3 -262.5
t12 -147t19.5 -63.5t30.5 -14q60 0 60 283v67h-62v135h230v-651h-156q6 91 8 166h-2q-13 -97 -45.5 -138.5t-89.5 -41.5z" />
    <glyph glyph-name="H" unicode="H" horiz-adv-x="655" 
d="M59 0v1348h193v-566h151v566h193v-1348h-193v610h-151v-610h-193z" />
    <glyph glyph-name="I" unicode="I" horiz-adv-x="329" 
d="M68 0v1348h192v-1348h-192z" />
    <glyph glyph-name="J" unicode="J" horiz-adv-x="559" 
d="M268 -14q-127 0 -176 102t-49 356q0 53 6 230h164q-4 -110 -4 -221q0 -174 10 -230.5t39 -56.5q16 0 25.5 11.5t16 46.5t9 94.5t2.5 160.5v869h193v-824q0 -207 -22.5 -322t-72.5 -165.5t-141 -50.5z" />
    <glyph glyph-name="K" unicode="K" horiz-adv-x="632" 
d="M59 0v1348h195v-680h2l150 680h196l-166 -609l182 -739h-206l-107 539l-51 -183v-356h-195z" />
    <glyph glyph-name="L" unicode="L" horiz-adv-x="409" 
d="M59 0v1348h193v-1168h141v-180h-334z" />
    <glyph glyph-name="M" unicode="M" horiz-adv-x="798" 
d="M59 0v1348h275l61 -912h6l66 912h272v-1348h-192l20 1120h-6l-112 -1120h-125l-113 1120h-6l20 -1120h-166z" />
    <glyph glyph-name="N" unicode="N" horiz-adv-x="679" 
d="M59 0v1348h267l151 -1024h4l-32 1024h172v-1348h-228l-184 1118h-4l26 -1118h-172z" />
    <glyph glyph-name="O" unicode="O" horiz-adv-x="608" 
d="M305 -14q-73 0 -118 27.5t-77.5 104t-45.5 211.5t-13 351q0 275 25.5 422.5t78.5 203.5t150 56q96 0 148.5 -56t78 -203.5t25.5 -422.5q0 -172 -9 -291t-26.5 -199t-48.5 -124t-70.5 -62t-97.5 -18zM305 166q18 0 28 14t18 66t11 155t3 279q0 169 -3 269.5t-11 151.5
t-18 66t-28 15q-19 0 -29 -14.5t-18 -66.5t-11 -151.5t-3 -269.5q0 -178 3 -280.5t11 -154.5t18 -65.5t29 -13.5z" />
    <glyph glyph-name="P" unicode="P" horiz-adv-x="589" 
d="M59 0v1348h215q77 0 125 -20t81.5 -73t47 -144.5t13.5 -236.5q0 -183 -25.5 -284.5t-77 -141.5t-141.5 -40h-43v-408h-195zM254 557h33q32 0 47 19.5t23 82.5t8 193q0 141 -7.5 207t-22.5 87t-48 21h-33v-610z" />
    <glyph glyph-name="Q" unicode="Q" horiz-adv-x="618" 
d="M303 -14q-48 0 -82.5 11.5t-64 41t-48.5 79t-32.5 127.5t-19 184t-5.5 251q0 275 25.5 422.5t78.5 203.5t150 56q96 0 148.5 -53.5t78 -191t25.5 -390.5q0 -307 -17.5 -419.5t-68.5 -153.5v-2q14 1 34.5 4t39.5 6t24 4v-180h-266zM305 166q18 0 28 14t18 66t11 155t3 279
q0 169 -3 269.5t-11 151.5t-18 66t-28 15q-19 0 -29 -14.5t-18 -66.5t-11 -151.5t-3 -269.5q0 -178 3 -280.5t11 -154.5t18 -65.5t29 -13.5z" />
    <glyph glyph-name="R" unicode="R" horiz-adv-x="626" 
d="M59 0v1348h238q85 0 137 -19t82.5 -68t41.5 -119.5t11 -185.5q0 -154 -23 -225.5t-87 -95.5v-2q59 -17 84.5 -63.5t25.5 -131.5v-438h-192v451q0 56 -19.5 77t-64.5 21h-41v-549h-193zM252 682h37q37 0 54 15t25.5 62.5t8.5 147.5q0 117 -6.5 169t-23 71.5t-54.5 19.5
h-41v-485z" />
    <glyph glyph-name="S" unicode="S" horiz-adv-x="567" 
d="M281 -14q-61 0 -102 16.5t-68.5 49t-42 93.5t-20 137t-5.5 193h172q0 -109 2 -169t9.5 -96.5t18.5 -47t31 -10.5q36 0 47 35t11 153t-27 164q-18 30 -88 88q-74 60 -110 113q-66 90 -66 280q0 204 58.5 290.5t179.5 86.5q50 0 84 -8t60.5 -31.5t41.5 -58t25 -96t13 -136
t3 -186.5h-168q0 84 -0.5 136t-2.5 94.5t-5 63.5t-9 35t-12.5 17.5t-17.5 3.5q-32 0 -44.5 -38.5t-12.5 -151.5q0 -150 30 -193q20 -29 96 -90q82 -67 111 -119q53 -83 53 -248q0 -142 -24.5 -222.5t-77 -114t-143.5 -33.5z" />
    <glyph glyph-name="T" unicode="T" horiz-adv-x="477" 
d="M141 0v1167h-137v181h469v-181h-137v-1167h-195z" />
    <glyph glyph-name="U" unicode="U" horiz-adv-x="587" 
d="M295 -14q-59 0 -100 14.5t-74.5 52t-49.5 108t-16 177.5v1010h193v-1024q0 -94 16 -124t47 -30q18 0 29 9t19 44.5t8 100.5v1024h165v-1010q0 -106 -16 -177t-49 -108.5t-73.5 -52t-98.5 -14.5z" />
    <glyph glyph-name="V" unicode="V" horiz-adv-x="634" 
d="M182 0l-155 1348h221l80 -1127h10l72 1127h198l-155 -1348h-271z" />
    <glyph glyph-name="W" unicode="W" horiz-adv-x="911" 
d="M160 0l-133 1348h215l49 -1045h8l68 1045h194l70 -1045h8l53 1045h193l-135 -1348h-236l-57 985h-8l-66 -985h-223z" />
    <glyph glyph-name="X" unicode="X" horiz-adv-x="626" 
d="M25 0l159 692l-149 656h231l66 -502l71 502h187l-148 -656l158 -692h-229l-70 518l-74 -518h-202z" />
    <glyph glyph-name="Y" unicode="Y" horiz-adv-x="602" 
d="M205 0v469l-178 879h223l69 -639h5l63 639h188l-178 -879v-469h-192z" />
    <glyph glyph-name="Z" unicode="Z" horiz-adv-x="489" 
d="M27 0v129l229 1034v4h-215v181h422v-140l-223 -1024v-4h223v-180h-436z" />
    <glyph glyph-name="bracketleft" unicode="[" 
d="M207 403q-13 0 -19 -2v-200q4 -2 19 -2q37 0 50 25t13 77q0 54 -13 78t-50 24zM518 330v-49h-82v-78h96v-49h-155v297h155v-52h-96v-69h82zM203 150q-47 0 -74 4v292q61 9 76 9q67 0 96 -37.5t29 -116.5t-29.5 -115t-97.5 -36zM586 451h80l39 -164l38 164h82
q3 -45 13 -297h-60q0 108 -6 213l-41 -168h-55l-41 168h-2q-4 -140 -4 -213h-58q3 156 15 297zM987 150q-60 0 -84 35.5t-24 115.5q0 81 24 117.5t84 36.5t85.5 -37t25.5 -117q0 -79 -25.5 -115t-85.5 -36zM987 403q-29 0 -39 -23.5t-10 -78.5q0 -54 10 -78t39 -24
q30 0 40.5 24t10.5 78q0 55 -10 78.5t-41 23.5zM967 1016q49 0 79.5 -24.5t39 -51t8.5 -53.5q0 -43 -34.5 -72.5t-72.5 -34.5q-213 -23 -340 -147q3 8 9 22t25 53.5t39 75.5t50 80.5t59.5 76t66 53.5t71.5 22zM285 909q39 0 78 -21t69.5 -55t58.5 -74.5t48 -81.5t35 -75
t22 -55l8 -21q-117 148 -319 148q-49 0 -88 30t-39 76q0 53 33.5 91t93.5 38zM643 1214q38 -37 48.5 -102t-2.5 -131t-31.5 -126.5t-35.5 -98.5l-18 -39q20 191 -125 330q-35 35 -42 81.5t24 83.5q23 23 53 34t65 3.5t64 -35.5z" />
    <glyph glyph-name="backslash" unicode="\" 
d="M207 403q-13 0 -19 -2v-200q4 -2 19 -2q37 0 50 25t13 77q0 54 -13 78t-50 24zM518 330v-49h-82v-78h96v-49h-155v297h155v-52h-96v-69h82zM203 150q-47 0 -74 4v292q61 9 76 9q67 0 96 -37.5t29 -116.5t-29.5 -115t-97.5 -36zM586 451h80l39 -164l38 164h82
q3 -45 13 -297h-60q0 108 -6 213l-41 -168h-55l-41 168h-2q-4 -140 -4 -213h-58q3 156 15 297zM987 150q-60 0 -84 35.5t-24 115.5q0 81 24 117.5t84 36.5t85.5 -37t25.5 -117q0 -79 -25.5 -115t-85.5 -36zM987 403q-29 0 -39 -23.5t-10 -78.5q0 -54 10 -78t39 -24
q30 0 40.5 24t10.5 78q0 55 -10 78.5t-41 23.5zM967 1016q49 0 79.5 -24.5t39 -51t8.5 -53.5q0 -43 -34.5 -72.5t-72.5 -34.5q-213 -23 -340 -147q3 8 9 22t25 53.5t39 75.5t50 80.5t59.5 76t66 53.5t71.5 22zM285 909q39 0 78 -21t69.5 -55t58.5 -74.5t48 -81.5t35 -75
t22 -55l8 -21q-117 148 -319 148q-49 0 -88 30t-39 76q0 53 33.5 91t93.5 38zM643 1214q38 -37 48.5 -102t-2.5 -131t-31.5 -126.5t-35.5 -98.5l-18 -39q20 191 -125 330q-35 35 -42 81.5t24 83.5q23 23 53 34t65 3.5t64 -35.5z" />
    <glyph glyph-name="bracketright" unicode="]" 
d="M207 403q-13 0 -19 -2v-200q4 -2 19 -2q37 0 50 25t13 77q0 54 -13 78t-50 24zM518 330v-49h-82v-78h96v-49h-155v297h155v-52h-96v-69h82zM203 150q-47 0 -74 4v292q61 9 76 9q67 0 96 -37.5t29 -116.5t-29.5 -115t-97.5 -36zM586 451h80l39 -164l38 164h82
q3 -45 13 -297h-60q0 108 -6 213l-41 -168h-55l-41 168h-2q-4 -140 -4 -213h-58q3 156 15 297zM987 150q-60 0 -84 35.5t-24 115.5q0 81 24 117.5t84 36.5t85.5 -37t25.5 -117q0 -79 -25.5 -115t-85.5 -36zM987 403q-29 0 -39 -23.5t-10 -78.5q0 -54 10 -78t39 -24
q30 0 40.5 24t10.5 78q0 55 -10 78.5t-41 23.5zM967 1016q49 0 79.5 -24.5t39 -51t8.5 -53.5q0 -43 -34.5 -72.5t-72.5 -34.5q-213 -23 -340 -147q3 8 9 22t25 53.5t39 75.5t50 80.5t59.5 76t66 53.5t71.5 22zM285 909q39 0 78 -21t69.5 -55t58.5 -74.5t48 -81.5t35 -75
t22 -55l8 -21q-117 148 -319 148q-49 0 -88 30t-39 76q0 53 33.5 91t93.5 38zM643 1214q38 -37 48.5 -102t-2.5 -131t-31.5 -126.5t-35.5 -98.5l-18 -39q20 191 -125 330q-35 35 -42 81.5t24 83.5q23 23 53 34t65 3.5t64 -35.5z" />
    <glyph glyph-name="asciicircum" unicode="^" 
d="M207 403q-13 0 -19 -2v-200q4 -2 19 -2q37 0 50 25t13 77q0 54 -13 78t-50 24zM518 330v-49h-82v-78h96v-49h-155v297h155v-52h-96v-69h82zM203 150q-47 0 -74 4v292q61 9 76 9q67 0 96 -37.5t29 -116.5t-29.5 -115t-97.5 -36zM586 451h80l39 -164l38 164h82
q3 -45 13 -297h-60q0 108 -6 213l-41 -168h-55l-41 168h-2q-4 -140 -4 -213h-58q3 156 15 297zM987 150q-60 0 -84 35.5t-24 115.5q0 81 24 117.5t84 36.5t85.5 -37t25.5 -117q0 -79 -25.5 -115t-85.5 -36zM987 403q-29 0 -39 -23.5t-10 -78.5q0 -54 10 -78t39 -24
q30 0 40.5 24t10.5 78q0 55 -10 78.5t-41 23.5zM967 1016q49 0 79.5 -24.5t39 -51t8.5 -53.5q0 -43 -34.5 -72.5t-72.5 -34.5q-213 -23 -340 -147q3 8 9 22t25 53.5t39 75.5t50 80.5t59.5 76t66 53.5t71.5 22zM285 909q39 0 78 -21t69.5 -55t58.5 -74.5t48 -81.5t35 -75
t22 -55l8 -21q-117 148 -319 148q-49 0 -88 30t-39 76q0 53 33.5 91t93.5 38zM643 1214q38 -37 48.5 -102t-2.5 -131t-31.5 -126.5t-35.5 -98.5l-18 -39q20 191 -125 330q-35 35 -42 81.5t24 83.5q23 23 53 34t65 3.5t64 -35.5z" />
    <glyph glyph-name="underscore" unicode="_" 
d="M207 403q-13 0 -19 -2v-200q4 -2 19 -2q37 0 50 25t13 77q0 54 -13 78t-50 24zM518 330v-49h-82v-78h96v-49h-155v297h155v-52h-96v-69h82zM203 150q-47 0 -74 4v292q61 9 76 9q67 0 96 -37.5t29 -116.5t-29.5 -115t-97.5 -36zM586 451h80l39 -164l38 164h82
q3 -45 13 -297h-60q0 108 -6 213l-41 -168h-55l-41 168h-2q-4 -140 -4 -213h-58q3 156 15 297zM987 150q-60 0 -84 35.5t-24 115.5q0 81 24 117.5t84 36.5t85.5 -37t25.5 -117q0 -79 -25.5 -115t-85.5 -36zM987 403q-29 0 -39 -23.5t-10 -78.5q0 -54 10 -78t39 -24
q30 0 40.5 24t10.5 78q0 55 -10 78.5t-41 23.5zM967 1016q49 0 79.5 -24.5t39 -51t8.5 -53.5q0 -43 -34.5 -72.5t-72.5 -34.5q-213 -23 -340 -147q3 8 9 22t25 53.5t39 75.5t50 80.5t59.5 76t66 53.5t71.5 22zM285 909q39 0 78 -21t69.5 -55t58.5 -74.5t48 -81.5t35 -75
t22 -55l8 -21q-117 148 -319 148q-49 0 -88 30t-39 76q0 53 33.5 91t93.5 38zM643 1214q38 -37 48.5 -102t-2.5 -131t-31.5 -126.5t-35.5 -98.5l-18 -39q20 191 -125 330q-35 35 -42 81.5t24 83.5q23 23 53 34t65 3.5t64 -35.5z" />
    <glyph glyph-name="grave" unicode="`" 
d="M207 403q-13 0 -19 -2v-200q4 -2 19 -2q37 0 50 25t13 77q0 54 -13 78t-50 24zM518 330v-49h-82v-78h96v-49h-155v297h155v-52h-96v-69h82zM203 150q-47 0 -74 4v292q61 9 76 9q67 0 96 -37.5t29 -116.5t-29.5 -115t-97.5 -36zM586 451h80l39 -164l38 164h82
q3 -45 13 -297h-60q0 108 -6 213l-41 -168h-55l-41 168h-2q-4 -140 -4 -213h-58q3 156 15 297zM987 150q-60 0 -84 35.5t-24 115.5q0 81 24 117.5t84 36.5t85.5 -37t25.5 -117q0 -79 -25.5 -115t-85.5 -36zM987 403q-29 0 -39 -23.5t-10 -78.5q0 -54 10 -78t39 -24
q30 0 40.5 24t10.5 78q0 55 -10 78.5t-41 23.5zM967 1016q49 0 79.5 -24.5t39 -51t8.5 -53.5q0 -43 -34.5 -72.5t-72.5 -34.5q-213 -23 -340 -147q3 8 9 22t25 53.5t39 75.5t50 80.5t59.5 76t66 53.5t71.5 22zM285 909q39 0 78 -21t69.5 -55t58.5 -74.5t48 -81.5t35 -75
t22 -55l8 -21q-117 148 -319 148q-49 0 -88 30t-39 76q0 53 33.5 91t93.5 38zM643 1214q38 -37 48.5 -102t-2.5 -131t-31.5 -126.5t-35.5 -98.5l-18 -39q20 191 -125 330q-35 35 -42 81.5t24 83.5q23 23 53 34t65 3.5t64 -35.5z" />
    <glyph glyph-name="a" unicode="a" horiz-adv-x="569" 
d="M205 -10q-47 0 -79.5 20t-49.5 58.5t-24 84.5t-7 107q0 140 48 211.5t161 71.5h84v178q0 89 -11 120t-40 31q-32 0 -44 -35.5t-12 -127.5q0 -33 5 -95h-160q-6 48 -6 105q0 159 53 231t174 72q123 0 172 -74t49 -243v-705h-180q7 101 10 172h-2q-11 -93 -43.5 -137.5
t-97.5 -44.5zM266 139q72 0 72 248v43h-51q-47 0 -61.5 -34t-14.5 -115q0 -74 13 -108t42 -34z" />
    <glyph glyph-name="b" unicode="b" horiz-adv-x="624" 
d="M395 -10q-71 0 -106 47.5t-49 150.5h-2q0 -113 10 -188h-180v1397h180v-363q0 -64 -8 -200h2q24 188 159 188q66 0 104 -44t57.5 -152.5t19.5 -299.5q0 -157 -13 -264.5t-38.5 -165.5t-58 -82t-77.5 -24zM332 152q23 0 36.5 24t23 107.5t9.5 236.5q0 139 -7 213
t-20 100.5t-38 26.5q-88 0 -88 -313v-113q0 -123 23 -202.5t61 -79.5z" />
    <glyph glyph-name="c" unicode="c" horiz-adv-x="544" 
d="M279 -10q-128 0 -182 117t-54 399q0 201 28 315.5t78.5 157.5t135.5 43q84 0 130.5 -39t67.5 -133t21 -266h-162q0 119 -5.5 178.5t-16 78.5t-31.5 19q-26 0 -38.5 -22.5t-20 -99.5t-7.5 -232q0 -148 7 -225.5t20 -103t37 -25.5q18 0 27.5 8t16.5 38t9 82t2 146h162
q0 -175 -21 -267.5t-68 -130.5t-136 -38z" />
    <glyph glyph-name="d" unicode="d" horiz-adv-x="624" 
d="M236 -10q-102 0 -147.5 119.5t-45.5 410.5q0 191 22 303t62 155.5t104 43.5q124 0 144 -143h2v518h180v-1397h-180q8 93 14 209h-2q-15 -119 -49 -169t-104 -50zM295 152q36 0 59 92.5t23 232.5v84q0 148 -21 223.5t-59 75.5q-19 0 -31.5 -13.5t-23 -49.5t-15 -105
t-4.5 -174q0 -144 7.5 -224t22.5 -111t42 -31z" />
    <glyph glyph-name="e" unicode="e" horiz-adv-x="548" 
d="M506 569v-84h-283q0 -196 15 -271t53 -75q22 0 33 18.5t15.5 66.5t4.5 147h162q0 -208 -51.5 -294.5t-173.5 -86.5q-59 0 -101 22t-68.5 61.5t-42 105t-21 140t-5.5 179.5q0 157 16 261.5t49 161.5t75.5 79t103.5 22q81 0 127 -38.5t69 -137.5t23 -277zM344 598v23
q0 83 -2 130t-8.5 75t-16 37t-26.5 9q-22 0 -34.5 -17t-21.5 -78.5t-12 -178.5h121z" />
    <glyph glyph-name="f" unicode="f" horiz-adv-x="411" 
d="M94 0v844h-88v168h88v137q0 140 53.5 200t174.5 60q46 0 88 -12v-160q-25 10 -58 10q-44 0 -61 -25t-17 -83v-127h146v-168h-146v-844h-180z" />
    <glyph glyph-name="g" unicode="g" horiz-adv-x="577" 
d="M332 145q114 0 166.5 -63t52.5 -186q0 -316 -256 -316q-73 0 -126 23t-80.5 61.5t-39.5 79t-12 86.5q0 72 24.5 122t69.5 62v2q-57 41 -57 142q0 118 63 147v2q-88 73 -88 336q0 211 54 295t180 84q69 0 114 -23l2 2q-16 15 -28.5 43t-12.5 58q0 53 34 82.5t102 29.5
q35 0 51 -8v-151q-12 4 -31 4q-51 0 -51 -58q0 -22 12 -88q41 -81 41 -270q0 -145 -25 -227.5t-74.5 -116t-133.5 -33.5q-26 0 -62 4q-6 -15 -6 -53q0 -72 51 -72h66zM283 885q-25 0 -38 -16.5t-19.5 -68.5t-6.5 -157t7 -157.5t19.5 -67.5t37.5 -15q24 0 36 15t19.5 68
t7.5 157t-7 157t-19.5 69t-36.5 16zM293 -276q40 0 59 31t19 102q0 64 -15 94.5t-57 30.5h-20q-68 0 -68 -134q0 -124 82 -124z" />
    <glyph glyph-name="h" unicode="h" horiz-adv-x="626" 
d="M68 0v1397h180v-385q0 -3 -10 -213h2q5 35 10.5 59.5t18.5 58t31 54.5t48.5 36t69.5 15q92 0 126 -71.5t34 -213.5v-737h-181v717q0 70 -12 101.5t-45 31.5q-44 0 -68 -66.5t-24 -173.5v-610h-180z" />
    <glyph glyph-name="i" unicode="i" horiz-adv-x="313" 
d="M66 1087v207h184v-207h-184zM68 0v1012h180v-1012h-180z" />
    <glyph glyph-name="j" unicode="j" horiz-adv-x="313" 
d="M66 1087v207h184v-207h-184zM61 -403q-59 0 -106 14v162q23 -9 47 -9q32 0 49 27t17 70v1151h180v-1162q0 -253 -187 -253z" />
    <glyph glyph-name="k" unicode="k" horiz-adv-x="604" 
d="M68 0v1397h180v-879h2l149 494h187l-144 -410l152 -602h-197l-84 418l-65 -180v-238h-180z" />
    <glyph glyph-name="l" unicode="l" horiz-adv-x="313" 
d="M68 0v1397h180v-1397h-180z" />
    <glyph glyph-name="m" unicode="m" horiz-adv-x="919" 
d="M59 0v1012h181l-9 -199h5q11 103 47.5 156t111.5 53t112.5 -40t43.5 -128h2q7 81 48.5 124.5t109.5 43.5q88 0 122.5 -64t34.5 -213v-745h-180v721q0 66 -10.5 97.5t-42.5 31.5q-80 0 -80 -221v-629h-180v721q0 65 -11.5 97t-41.5 32q-82 0 -82 -240v-610h-181z" />
    <glyph glyph-name="n" unicode="n" horiz-adv-x="620" 
d="M59 0v1012h181l-11 -213h2q7 52 18.5 89.5t31.5 69.5t52 48t77 16q40 0 68.5 -14t46 -38t27.5 -61.5t13.5 -77.5t3.5 -94v-737h-180v717q0 71 -11 102t-44 31q-46 0 -70 -65.5t-24 -174.5v-610h-181z" />
    <glyph glyph-name="o" unicode="o" horiz-adv-x="595" 
d="M299 -10q-95 0 -149.5 48.5t-80.5 160t-26 307.5q0 194 25.5 306t80.5 161t150 49q138 0 196 -115t58 -401q0 -195 -26 -307.5t-80.5 -160.5t-147.5 -48zM299 152q28 0 43 26t23 103t8 225t-8 225t-23 103t-43 26q-29 0 -44.5 -26t-23.5 -103t-8 -225t8 -225t23.5 -103
t44.5 -26z" />
    <glyph glyph-name="p" unicode="p" horiz-adv-x="624" 
d="M68 -385v1397h180l-8 -189h2q12 107 50.5 153t106.5 46q65 0 103.5 -42.5t59 -152t20.5 -299.5q0 -130 -8.5 -225t-23.5 -155t-39 -95.5t-51.5 -49t-64.5 -13.5q-71 0 -106 45t-47 143h-2q1 -28 4.5 -112t3.5 -107v-344h-180zM330 152q24 0 38 25t23.5 108.5t9.5 234.5
q0 106 -4.5 174.5t-14.5 104t-22.5 48.5t-31.5 13q-25 0 -42 -25.5t-27.5 -99t-10.5 -196.5v-111q0 -276 82 -276z" />
    <glyph glyph-name="q" unicode="q" horiz-adv-x="624" 
d="M377 -385v580h-2q-9 -104 -42.5 -154.5t-103.5 -50.5q-67 0 -107 51t-59.5 167t-19.5 312q0 273 45.5 387.5t144.5 114.5q62 0 98 -37t48 -121h2v148h176v-1397h-180zM295 152q39 0 60.5 85t21.5 238v88q0 297 -78 297q-26 0 -41.5 -25t-25 -101t-9.5 -214
q0 -214 15.5 -291t56.5 -77z" />
    <glyph glyph-name="r" unicode="r" horiz-adv-x="555" 
d="M59 0v1012h181l-11 -226h4q11 115 46 175.5t106 60.5q49 0 77.5 -27t45 -106.5t16.5 -222.5q0 -126 -10 -273h-154q9 128 9 256q0 78 -6.5 123.5t-16.5 61.5t-27 16q-79 0 -79 -348v-502h-181z" />
    <glyph glyph-name="s" unicode="s" horiz-adv-x="538" 
d="M266 -10q-133 0 -178 80t-45 284h160q0 -98 5 -144.5t16.5 -62.5t35.5 -16q30 0 42.5 28t12.5 101q0 101 -22 125q-14 22 -88 68q-31 19 -44 27t-36 27t-37 38q-45 61 -45 186q0 147 53 219t168 72q87 0 131.5 -31t64 -109.5t19.5 -230.5h-157q0 81 -1.5 121t-7 67.5
t-14.5 34.5t-27 7q-31 0 -41 -28.5t-10 -98.5q0 -101 25 -133q5 -6 16 -15t21 -15.5t29.5 -18.5t29.5 -19q85 -50 111 -90q43 -62 43 -187q0 -153 -51 -219.5t-179 -66.5z" />
    <glyph glyph-name="t" unicode="t" horiz-adv-x="409" 
d="M295 -8q-113 0 -158 68.5t-45 222.5v561h-86v168h64q24 0 35 17t14 63l4 149h149v-229h131v-168h-131v-547q0 -79 14 -108t56 -29q31 0 47 4v-158q-33 -14 -94 -14z" />
    <glyph glyph-name="u" unicode="u" horiz-adv-x="618" 
d="M221 -10q-90 0 -130 75t-40 228v719h180v-695q0 -81 13.5 -118t48.5 -37q86 0 86 274v576h180v-1012h-180q12 150 14 217h-2q-16 -115 -53 -171t-117 -56z" />
    <glyph glyph-name="v" unicode="v" horiz-adv-x="598" 
d="M182 0l-151 1012h207l65 -813h8l76 813h182l-153 -1012h-234z" />
    <glyph glyph-name="w" unicode="w" horiz-adv-x="847" 
d="M135 0l-104 1012h186l43 -791h6l76 791h190l62 -791h8l57 791h158l-104 -1012h-234l-49 737h-6l-72 -737h-217z" />
    <glyph glyph-name="x" unicode="x" horiz-adv-x="595" 
d="M31 0l145 516l-135 496h199l73 -377l70 377h174l-133 -496l145 -516h-202l-76 385l-76 -385h-184z" />
    <glyph glyph-name="y" unicode="y" horiz-adv-x="595" 
d="M215 -399q-57 0 -109 18v162q35 -10 66 -10q38 0 56.5 45t33.5 184h-57l-174 1012h202l89 -772h4l73 772h166l-131 -1030q-21 -160 -46 -239.5t-64 -110.5t-109 -31z" />
    <glyph glyph-name="z" unicode="z" horiz-adv-x="475" 
d="M35 0v135l209 705v4h-197v168h395v-133l-211 -709v-2h211v-168h-407z" />
    <glyph glyph-name="braceleft" unicode="{" 
d="M207 403q-13 0 -19 -2v-200q4 -2 19 -2q37 0 50 25t13 77q0 54 -13 78t-50 24zM518 330v-49h-82v-78h96v-49h-155v297h155v-52h-96v-69h82zM203 150q-47 0 -74 4v292q61 9 76 9q67 0 96 -37.5t29 -116.5t-29.5 -115t-97.5 -36zM586 451h80l39 -164l38 164h82
q3 -45 13 -297h-60q0 108 -6 213l-41 -168h-55l-41 168h-2q-4 -140 -4 -213h-58q3 156 15 297zM987 150q-60 0 -84 35.5t-24 115.5q0 81 24 117.5t84 36.5t85.5 -37t25.5 -117q0 -79 -25.5 -115t-85.5 -36zM987 403q-29 0 -39 -23.5t-10 -78.5q0 -54 10 -78t39 -24
q30 0 40.5 24t10.5 78q0 55 -10 78.5t-41 23.5zM967 1016q49 0 79.5 -24.5t39 -51t8.5 -53.5q0 -43 -34.5 -72.5t-72.5 -34.5q-213 -23 -340 -147q3 8 9 22t25 53.5t39 75.5t50 80.5t59.5 76t66 53.5t71.5 22zM285 909q39 0 78 -21t69.5 -55t58.5 -74.5t48 -81.5t35 -75
t22 -55l8 -21q-117 148 -319 148q-49 0 -88 30t-39 76q0 53 33.5 91t93.5 38zM643 1214q38 -37 48.5 -102t-2.5 -131t-31.5 -126.5t-35.5 -98.5l-18 -39q20 191 -125 330q-35 35 -42 81.5t24 83.5q23 23 53 34t65 3.5t64 -35.5z" />
    <glyph glyph-name="bar" unicode="|" 
d="M207 403q-13 0 -19 -2v-200q4 -2 19 -2q37 0 50 25t13 77q0 54 -13 78t-50 24zM518 330v-49h-82v-78h96v-49h-155v297h155v-52h-96v-69h82zM203 150q-47 0 -74 4v292q61 9 76 9q67 0 96 -37.5t29 -116.5t-29.5 -115t-97.5 -36zM586 451h80l39 -164l38 164h82
q3 -45 13 -297h-60q0 108 -6 213l-41 -168h-55l-41 168h-2q-4 -140 -4 -213h-58q3 156 15 297zM987 150q-60 0 -84 35.5t-24 115.5q0 81 24 117.5t84 36.5t85.5 -37t25.5 -117q0 -79 -25.5 -115t-85.5 -36zM987 403q-29 0 -39 -23.5t-10 -78.5q0 -54 10 -78t39 -24
q30 0 40.5 24t10.5 78q0 55 -10 78.5t-41 23.5zM967 1016q49 0 79.5 -24.5t39 -51t8.5 -53.5q0 -43 -34.5 -72.5t-72.5 -34.5q-213 -23 -340 -147q3 8 9 22t25 53.5t39 75.5t50 80.5t59.5 76t66 53.5t71.5 22zM285 909q39 0 78 -21t69.5 -55t58.5 -74.5t48 -81.5t35 -75
t22 -55l8 -21q-117 148 -319 148q-49 0 -88 30t-39 76q0 53 33.5 91t93.5 38zM643 1214q38 -37 48.5 -102t-2.5 -131t-31.5 -126.5t-35.5 -98.5l-18 -39q20 191 -125 330q-35 35 -42 81.5t24 83.5q23 23 53 34t65 3.5t64 -35.5z" />
    <glyph glyph-name="braceright" unicode="}" 
d="M207 403q-13 0 -19 -2v-200q4 -2 19 -2q37 0 50 25t13 77q0 54 -13 78t-50 24zM518 330v-49h-82v-78h96v-49h-155v297h155v-52h-96v-69h82zM203 150q-47 0 -74 4v292q61 9 76 9q67 0 96 -37.5t29 -116.5t-29.5 -115t-97.5 -36zM586 451h80l39 -164l38 164h82
q3 -45 13 -297h-60q0 108 -6 213l-41 -168h-55l-41 168h-2q-4 -140 -4 -213h-58q3 156 15 297zM987 150q-60 0 -84 35.5t-24 115.5q0 81 24 117.5t84 36.5t85.5 -37t25.5 -117q0 -79 -25.5 -115t-85.5 -36zM987 403q-29 0 -39 -23.5t-10 -78.5q0 -54 10 -78t39 -24
q30 0 40.5 24t10.5 78q0 55 -10 78.5t-41 23.5zM967 1016q49 0 79.5 -24.5t39 -51t8.5 -53.5q0 -43 -34.5 -72.5t-72.5 -34.5q-213 -23 -340 -147q3 8 9 22t25 53.5t39 75.5t50 80.5t59.5 76t66 53.5t71.5 22zM285 909q39 0 78 -21t69.5 -55t58.5 -74.5t48 -81.5t35 -75
t22 -55l8 -21q-117 148 -319 148q-49 0 -88 30t-39 76q0 53 33.5 91t93.5 38zM643 1214q38 -37 48.5 -102t-2.5 -131t-31.5 -126.5t-35.5 -98.5l-18 -39q20 191 -125 330q-35 35 -42 81.5t24 83.5q23 23 53 34t65 3.5t64 -35.5z" />
    <glyph glyph-name="asciitilde" unicode="~" 
d="M207 403q-13 0 -19 -2v-200q4 -2 19 -2q37 0 50 25t13 77q0 54 -13 78t-50 24zM518 330v-49h-82v-78h96v-49h-155v297h155v-52h-96v-69h82zM203 150q-47 0 -74 4v292q61 9 76 9q67 0 96 -37.5t29 -116.5t-29.5 -115t-97.5 -36zM586 451h80l39 -164l38 164h82
q3 -45 13 -297h-60q0 108 -6 213l-41 -168h-55l-41 168h-2q-4 -140 -4 -213h-58q3 156 15 297zM987 150q-60 0 -84 35.5t-24 115.5q0 81 24 117.5t84 36.5t85.5 -37t25.5 -117q0 -79 -25.5 -115t-85.5 -36zM987 403q-29 0 -39 -23.5t-10 -78.5q0 -54 10 -78t39 -24
q30 0 40.5 24t10.5 78q0 55 -10 78.5t-41 23.5zM967 1016q49 0 79.5 -24.5t39 -51t8.5 -53.5q0 -43 -34.5 -72.5t-72.5 -34.5q-213 -23 -340 -147q3 8 9 22t25 53.5t39 75.5t50 80.5t59.5 76t66 53.5t71.5 22zM285 909q39 0 78 -21t69.5 -55t58.5 -74.5t48 -81.5t35 -75
t22 -55l8 -21q-117 148 -319 148q-49 0 -88 30t-39 76q0 53 33.5 91t93.5 38zM643 1214q38 -37 48.5 -102t-2.5 -131t-31.5 -126.5t-35.5 -98.5l-18 -39q20 191 -125 330q-35 35 -42 81.5t24 83.5q23 23 53 34t65 3.5t64 -35.5z" />
    </font>
</defs>
</svg>
